<svg class="main-svg" xmlns="http://www.w3.org/2000/svg" xmlns:xlink="http://www.w3.org/1999/xlink" width="700" height="500" style="" viewBox="0 0 700 500"><rect x="0" y="0" width="700" height="500" style="fill: rgb(252, 252, 252); fill-opacity: 1;"/><defs id="defs-faa829"><g class="clips"><clipPath id="clipfaa829xyplot" class="plotclip"><rect width="662" height="458"/></clipPath><clipPath class="axesclip" id="clipfaa829x"><rect x="33" y="0" width="662" height="500"/></clipPath><clipPath class="axesclip" id="clipfaa829y"><rect x="0" y="5" width="700" height="458"/></clipPath><clipPath class="axesclip" id="clipfaa829xy"><rect x="33" y="5" width="662" height="458"/></clipPath></g><g class="gradients"/><g class="patterns"/></defs><g class="bglayer"><rect class="bg" x="33" y="5" width="662" height="458" style="fill: rgb(229, 236, 246); fill-opacity: 1; stroke-width: 0;"/></g><g class="layer-below"><g class="imagelayer"/><g class="shapelayer"/></g><g class="cartesianlayer"><g class="subplot xy"><g class="layer-subplot"><g class="shapelayer"/><g class="imagelayer"/></g><g class="minor-gridlayer"><g class="x"/><g class="y"/></g><g class="gridlayer"><g class="x"><path class="xgrid crisp" transform="translate(85.66,0)" d="M0,5v458" style="stroke: rgb(255, 255, 255); stroke-opacity: 1; stroke-width: 1px;"/><path class="xgrid crisp" transform="translate(190.98,0)" d="M0,5v458" style="stroke: rgb(255, 255, 255); stroke-opacity: 1; stroke-width: 1px;"/><path class="xgrid crisp" transform="translate(296.3,0)" d="M0,5v458" style="stroke: rgb(255, 255, 255); stroke-opacity: 1; stroke-width: 1px;"/><path class="xgrid crisp" transform="translate(401.61,0)" d="M0,5v458" style="stroke: rgb(255, 255, 255); stroke-opacity: 1; stroke-width: 1px;"/><path class="xgrid crisp" transform="translate(506.93,0)" d="M0,5v458" style="stroke: rgb(255, 255, 255); stroke-opacity: 1; stroke-width: 1px;"/><path class="xgrid crisp" transform="translate(612.25,0)" d="M0,5v458" style="stroke: rgb(255, 255, 255); stroke-opacity: 1; stroke-width: 1px;"/></g><g class="y"><path class="ygrid crisp" transform="translate(0,427.98)" d="M33,0h662" style="stroke: rgb(255, 255, 255); stroke-opacity: 1; stroke-width: 1px;"/><path class="ygrid crisp" transform="translate(0,367.36)" d="M33,0h662" style="stroke: rgb(255, 255, 255); stroke-opacity: 1; stroke-width: 1px;"/><path class="ygrid crisp" transform="translate(0,306.74)" d="M33,0h662" style="stroke: rgb(255, 255, 255); stroke-opacity: 1; stroke-width: 1px;"/><path class="ygrid crisp" transform="translate(0,246.12)" d="M33,0h662" style="stroke: rgb(255, 255, 255); stroke-opacity: 1; stroke-width: 1px;"/><path class="ygrid crisp" transform="translate(0,185.51)" d="M33,0h662" style="stroke: rgb(255, 255, 255); stroke-opacity: 1; stroke-width: 1px;"/><path class="ygrid crisp" transform="translate(0,124.89)" d="M33,0h662" style="stroke: rgb(255, 255, 255); stroke-opacity: 1; stroke-width: 1px;"/><path class="ygrid crisp" transform="translate(0,64.27000000000001)" d="M33,0h662" style="stroke: rgb(255, 255, 255); stroke-opacity: 1; stroke-width: 1px;"/></g></g><g class="zerolinelayer"/><path class="xlines-below"/><path class="ylines-below"/><g class="overlines-below"/><g class="xaxislayer-below"/><g class="yaxislayer-below"/><g class="overaxes-below"/><g class="plot" transform="translate(33,5)" clip-path="url(#clipfaa829xyplot)"><g class="boxlayer mlayer"><g class="trace boxes" style="opacity: 1;"><path class="box" d="M3.84,386.61H11.21M3.84,386.61H11.21V386.61H3.84ZM7.52,386.61V398.73M7.52,386.61V386.61" style="vector-effect: non-scaling-stroke; stroke-width: 2px; stroke: rgb(36, 181, 36); stroke-opacity: 1; fill: rgb(36, 181, 36); fill-opacity: 1; opacity: 1;"/><path class="box" d="M18.88,386.61H26.25M18.88,386.61H26.25V386.61H18.88ZM22.57,386.61V386.61M22.57,386.61V386.61" style="vector-effect: non-scaling-stroke; stroke-width: 2px; stroke: rgb(36, 181, 36); stroke-opacity: 1; fill: rgb(36, 181, 36); fill-opacity: 1; opacity: 1;"/><path class="box" d="M64.02,363.36H71.39M64.02,380.54H71.39V362.36H64.02ZM67.7,380.54V380.54M67.7,362.36V338.11" style="vector-effect: non-scaling-stroke; stroke-width: 2px; stroke: rgb(36, 181, 36); stroke-opacity: 1; fill: rgb(36, 181, 36); fill-opacity: 1; opacity: 1;"/><path class="box" d="M79.06,367.42H86.44M79.06,368.42H86.44V344.17H79.06ZM82.75,368.42V435.1M82.75,344.17V338.11" style="vector-effect: non-scaling-stroke; stroke-width: 2px; stroke: rgb(235, 31, 5); stroke-opacity: 1; fill: rgb(235, 31, 5); fill-opacity: 1; opacity: 1;"/><path class="box" d="M94.11,385.61H101.48M94.11,386.61H101.48V368.42H94.11ZM97.8,386.61V386.61M97.8,368.42V307.8" style="vector-effect: non-scaling-stroke; stroke-width: 2px; stroke: rgb(235, 31, 5); stroke-opacity: 1; fill: rgb(235, 31, 5); fill-opacity: 1; opacity: 1;"/><path class="box" d="M109.15,393.67H116.53M109.15,410.85H116.53V392.67H109.15ZM112.84,410.85V410.85M112.84,392.67V380.54" style="vector-effect: non-scaling-stroke; stroke-width: 2px; stroke: rgb(36, 181, 36); stroke-opacity: 1; fill: rgb(36, 181, 36); fill-opacity: 1; opacity: 1;"/><path class="box" d="M124.2,421.98H131.57M124.2,422.98H131.57V386.61H124.2ZM127.89,422.98V422.98M127.89,386.61V386.61" style="vector-effect: non-scaling-stroke; stroke-width: 2px; stroke: rgb(235, 31, 5); stroke-opacity: 1; fill: rgb(235, 31, 5); fill-opacity: 1; opacity: 1;"/><path class="box" d="M169.34,398.73H176.71M169.34,398.73H176.71V398.73H169.34ZM173.02,398.73V435.1M173.02,398.73V386.61" style="vector-effect: non-scaling-stroke; stroke-width: 2px; stroke: rgb(36, 181, 36); stroke-opacity: 1; fill: rgb(36, 181, 36); fill-opacity: 1; opacity: 1;"/><path class="box" d="M184.38,386.61H191.75M184.38,386.61H191.75V386.61H184.38ZM188.07,386.61V398.73M188.07,386.61V386.61" style="vector-effect: non-scaling-stroke; stroke-width: 2px; stroke: rgb(36, 181, 36); stroke-opacity: 1; fill: rgb(36, 181, 36); fill-opacity: 1; opacity: 1;"/><path class="box" d="M199.43,386.61H206.8M199.43,386.61H206.8V386.61H199.43ZM203.11,386.61V422.98M203.11,386.61V386.61" style="vector-effect: non-scaling-stroke; stroke-width: 2px; stroke: rgb(36, 181, 36); stroke-opacity: 1; fill: rgb(36, 181, 36); fill-opacity: 1; opacity: 1;"/><path class="box" d="M214.47,363.36H221.85M214.47,386.61H221.85V362.36H214.47ZM218.16,386.61V386.61M218.16,362.36V338.11" style="vector-effect: non-scaling-stroke; stroke-width: 2px; stroke: rgb(36, 181, 36); stroke-opacity: 1; fill: rgb(36, 181, 36); fill-opacity: 1; opacity: 1;"/><path class="box" d="M229.52,349.24H236.89M229.52,350.24H236.89V338.11H229.52ZM233.2,350.24V392.67M233.2,338.11V338.11" style="vector-effect: non-scaling-stroke; stroke-width: 2px; stroke: rgb(235, 31, 5); stroke-opacity: 1; fill: rgb(235, 31, 5); fill-opacity: 1; opacity: 1;"/><path class="box" d="M274.65,373.48H282.03M274.65,374.48H282.03V362.36H274.65ZM278.34,374.48V422.98M278.34,362.36V338.11" style="vector-effect: non-scaling-stroke; stroke-width: 2px; stroke: rgb(235, 31, 5); stroke-opacity: 1; fill: rgb(235, 31, 5); fill-opacity: 1; opacity: 1;"/><path class="box" d="M304.75,326.99H312.12M304.75,356.3H312.12V325.99H304.75ZM308.43,356.3V374.48M308.43,325.99V325.99" style="vector-effect: non-scaling-stroke; stroke-width: 2px; stroke: rgb(36, 181, 36); stroke-opacity: 1; fill: rgb(36, 181, 36); fill-opacity: 1; opacity: 1;"/><path class="box" d="M319.79,302.74H327.16M319.79,325.99H327.16V301.74H319.79ZM323.48,325.99V325.99M323.48,301.74V301.74" style="vector-effect: non-scaling-stroke; stroke-width: 2px; stroke: rgb(36, 181, 36); stroke-opacity: 1; fill: rgb(36, 181, 36); fill-opacity: 1; opacity: 1;"/><path class="box" d="M334.84,242.12H342.21M334.84,289.62H342.21V241.12H334.84ZM338.52,289.62V307.8M338.52,241.12V180.51" style="vector-effect: non-scaling-stroke; stroke-width: 2px; stroke: rgb(36, 181, 36); stroke-opacity: 1; fill: rgb(36, 181, 36); fill-opacity: 1; opacity: 1;"/><path class="box" d="M379.97,199.69H387.35M379.97,241.12H387.35V198.69H379.97ZM383.66,241.12V283.56M383.66,198.69V180.51" style="vector-effect: non-scaling-stroke; stroke-width: 2px; stroke: rgb(36, 181, 36); stroke-opacity: 1; fill: rgb(36, 181, 36); fill-opacity: 1; opacity: 1;"/><path class="box" d="M395.02,258.31H402.39M395.02,259.31H402.39V247.19H395.02ZM398.7,259.31V277.49M398.7,247.19V204.75" style="vector-effect: non-scaling-stroke; stroke-width: 2px; stroke: rgb(235, 31, 5); stroke-opacity: 1; fill: rgb(235, 31, 5); fill-opacity: 1; opacity: 1;"/><path class="box" d="M410.06,270.43H417.44M410.06,271.43H417.44V253.25H410.06ZM413.75,271.43V338.11M413.75,253.25V253.25" style="vector-effect: non-scaling-stroke; stroke-width: 2px; stroke: rgb(235, 31, 5); stroke-opacity: 1; fill: rgb(235, 31, 5); fill-opacity: 1; opacity: 1;"/><path class="box" d="M425.11,242.12H432.48M425.11,301.74H432.48V241.12H425.11ZM428.8,301.74V301.74M428.8,241.12V216.88" style="vector-effect: non-scaling-stroke; stroke-width: 2px; stroke: rgb(36, 181, 36); stroke-opacity: 1; fill: rgb(36, 181, 36); fill-opacity: 1; opacity: 1;"/><path class="box" d="M485.29,228H492.66M485.29,229H492.66V222.94H485.29ZM488.98,229V295.68M488.98,222.94V222.94" style="vector-effect: non-scaling-stroke; stroke-width: 2px; stroke: rgb(235, 31, 5); stroke-opacity: 1; fill: rgb(235, 31, 5); fill-opacity: 1; opacity: 1;"/><path class="box" d="M500.34,230H507.71M500.34,241.12H507.71V229H500.34ZM504.02,241.12V265.37M504.02,229V222.94" style="vector-effect: non-scaling-stroke; stroke-width: 2px; stroke: rgb(36, 181, 36); stroke-opacity: 1; fill: rgb(36, 181, 36); fill-opacity: 1; opacity: 1;"/><path class="box" d="M515.38,266.37H522.75M515.38,277.49H522.75V265.37H515.38ZM519.07,277.49V350.24M519.07,265.37V259.31" style="vector-effect: non-scaling-stroke; stroke-width: 2px; stroke: rgb(36, 181, 36); stroke-opacity: 1; fill: rgb(36, 181, 36); fill-opacity: 1; opacity: 1;"/><path class="box" d="M530.43,284.56H537.8M530.43,295.68H537.8V283.56H530.43ZM534.11,295.68V301.74M534.11,283.56V265.37" style="vector-effect: non-scaling-stroke; stroke-width: 2px; stroke: rgb(36, 181, 36); stroke-opacity: 1; fill: rgb(36, 181, 36); fill-opacity: 1; opacity: 1;"/><path class="box" d="M545.47,254.25H552.85M545.47,283.56H552.85V253.25H545.47ZM549.16,283.56V301.74M549.16,253.25V253.25" style="vector-effect: non-scaling-stroke; stroke-width: 2px; stroke: rgb(36, 181, 36); stroke-opacity: 1; fill: rgb(36, 181, 36); fill-opacity: 1; opacity: 1;"/><path class="box" d="M590.61,276.49H597.98M590.61,277.49H597.98V259.31H590.61ZM594.3,277.49V301.74M594.3,259.31V253.25" style="vector-effect: non-scaling-stroke; stroke-width: 2px; stroke: rgb(235, 31, 5); stroke-opacity: 1; fill: rgb(235, 31, 5); fill-opacity: 1; opacity: 1;"/><path class="box" d="M605.65,265.37H613.03M605.65,265.37H613.03V265.37H605.65ZM609.34,265.37V283.56M609.34,265.37V259.31" style="vector-effect: non-scaling-stroke; stroke-width: 2px; stroke: rgb(36, 181, 36); stroke-opacity: 1; fill: rgb(36, 181, 36); fill-opacity: 1; opacity: 1;"/><path class="box" d="M620.7,193.63H628.07M620.7,247.19H628.07V192.63H620.7ZM624.39,247.19V265.37M624.39,192.63V192.63" style="vector-effect: non-scaling-stroke; stroke-width: 2px; stroke: rgb(36, 181, 36); stroke-opacity: 1; fill: rgb(36, 181, 36); fill-opacity: 1; opacity: 1;"/><path class="box" d="M635.75,126.95H643.12M635.75,144.14H643.12V125.95H635.75ZM639.43,144.14V144.14M639.43,125.95V22.9" style="vector-effect: non-scaling-stroke; stroke-width: 2px; stroke: rgb(36, 181, 36); stroke-opacity: 1; fill: rgb(36, 181, 36); fill-opacity: 1; opacity: 1;"/><path class="box" d="M650.79,131.01H658.16M650.79,132.01H658.16V125.95H650.79ZM654.48,132.01V180.51M654.48,125.95V113.83" style="vector-effect: non-scaling-stroke; stroke-width: 2px; stroke: rgb(235, 31, 5); stroke-opacity: 1; fill: rgb(235, 31, 5); fill-opacity: 1; opacity: 1;"/></g></g></g><g class="overplot"/><path class="xlines-above crisp" d="M0,0" style="fill: none;"/><path class="ylines-above crisp" d="M0,0" style="fill: none;"/><g class="overlines-above"/><g class="xaxislayer-above"><g class="xtick"><text text-anchor="middle" x="0" y="476" transform="translate(85.66,0)" style="font-family: 'Open Sans', verdana, arial, sans-serif; font-size: 12px; fill: rgb(42, 63, 95); fill-opacity: 1; white-space: pre; opacity: 1;"><tspan class="line" dy="0em" x="0" y="476">Oct 16</tspan><tspan class="line" dy="1.3em" x="0" y="476">2022</tspan></text></g><g class="xtick"><text text-anchor="middle" x="0" y="476" style="font-family: 'Open Sans', verdana, arial, sans-serif; font-size: 12px; fill: rgb(42, 63, 95); fill-opacity: 1; white-space: pre; opacity: 1;" transform="translate(190.98,0)">Oct 23</text></g><g class="xtick"><text text-anchor="middle" x="0" y="476" style="font-family: 'Open Sans', verdana, arial, sans-serif; font-size: 12px; fill: rgb(42, 63, 95); fill-opacity: 1; white-space: pre; opacity: 1;" transform="translate(296.3,0)">Oct 30</text></g><g class="xtick"><text text-anchor="middle" x="0" y="476" style="font-family: 'Open Sans', verdana, arial, sans-serif; font-size: 12px; fill: rgb(42, 63, 95); fill-opacity: 1; white-space: pre; opacity: 1;" transform="translate(401.61,0)">Nov 6</text></g><g class="xtick"><text text-anchor="middle" x="0" y="476" style="font-family: 'Open Sans', verdana, arial, sans-serif; font-size: 12px; fill: rgb(42, 63, 95); fill-opacity: 1; white-space: pre; opacity: 1;" transform="translate(506.93,0)">Nov 13</text></g><g class="xtick"><text text-anchor="middle" x="0" y="476" style="font-family: 'Open Sans', verdana, arial, sans-serif; font-size: 12px; fill: rgb(42, 63, 95); fill-opacity: 1; white-space: pre; opacity: 1;" transform="translate(612.25,0)">Nov 20</text></g></g><g class="yaxislayer-above"><g class="ytick"><text text-anchor="end" x="32" y="4.199999999999999" transform="translate(0,427.98)" style="font-family: 'Open Sans', verdana, arial, sans-serif; font-size: 12px; fill: rgb(42, 63, 95); fill-opacity: 1; white-space: pre; opacity: 1;">11.5</text></g><g class="ytick"><text text-anchor="end" x="32" y="4.199999999999999" style="font-family: 'Open Sans', verdana, arial, sans-serif; font-size: 12px; fill: rgb(42, 63, 95); fill-opacity: 1; white-space: pre; opacity: 1;" transform="translate(0,367.36)">12</text></g><g class="ytick"><text text-anchor="end" x="32" y="4.199999999999999" style="font-family: 'Open Sans', verdana, arial, sans-serif; font-size: 12px; fill: rgb(42, 63, 95); fill-opacity: 1; white-space: pre; opacity: 1;" transform="translate(0,306.74)">12.5</text></g><g class="ytick"><text text-anchor="end" x="32" y="4.199999999999999" style="font-family: 'Open Sans', verdana, arial, sans-serif; font-size: 12px; fill: rgb(42, 63, 95); fill-opacity: 1; white-space: pre; opacity: 1;" transform="translate(0,246.12)">13</text></g><g class="ytick"><text text-anchor="end" x="32" y="4.199999999999999" style="font-family: 'Open Sans', verdana, arial, sans-serif; font-size: 12px; fill: rgb(42, 63, 95); fill-opacity: 1; white-space: pre; opacity: 1;" transform="translate(0,185.51)">13.5</text></g><g class="ytick"><text text-anchor="end" x="32" y="4.199999999999999" style="font-family: 'Open Sans', verdana, arial, sans-serif; font-size: 12px; fill: rgb(42, 63, 95); fill-opacity: 1; white-space: pre; opacity: 1;" transform="translate(0,124.89)">14</text></g><g class="ytick"><text text-anchor="end" x="32" y="4.199999999999999" style="font-family: 'Open Sans', verdana, arial, sans-serif; font-size: 12px; fill: rgb(42, 63, 95); fill-opacity: 1; white-space: pre; opacity: 1;" transform="translate(0,64.27000000000001)">14.5</text></g></g><g class="overaxes-above"/></g></g><g class="polarlayer"/><g class="smithlayer"/><g class="ternarylayer"/><g class="geolayer"/><g class="funnelarealayer"/><g class="pielayer"/><g class="iciclelayer"/><g class="treemaplayer"/><g class="sunburstlayer"/><g class="glimages"/><defs id="topdefs-faa829"><g class="clips"/></defs><g class="layer-above"><g class="imagelayer"/><g class="shapelayer"/></g><g class="infolayer"><g class="g-gtitle"/><g class="g-xtitle"/><g class="g-ytitle"/></g></svg>