<svg width="59" height="59" viewBox="0 0 59 59" fill="none" xmlns="http://www.w3.org/2000/svg">
<path d="M59 29.5C59 45.7924 45.7924 59 29.5 59C13.2076 59 0 45.7924 0 29.5C0 13.2076 13.2076 0 29.5 0C45.7924 0 59 13.2076 59 29.5Z" fill="#61AEC9"/>
<path fill-rule="evenodd" clip-rule="evenodd" d="M30.4853 39.6066L20.9393 30.0606C20.3536 29.4748 20.3536 28.5251 20.9393 27.9393L30.4853 18.3934C31.0711 17.8076 32.0208 17.8076 32.6066 18.3934C33.1924 18.9791 33.1924 19.9289 32.6066 20.5147L25.6213 27.5L38 27.5L38 30.5L25.6213 30.5L32.6066 37.4852C33.1924 38.071 33.1924 39.0208 32.6066 39.6066C32.0208 40.1923 31.0711 40.1923 30.4853 39.6066Z" fill="white"/>
</svg>
