<svg version="1.2" xmlns="http://www.w3.org/2000/svg" viewBox="0 0 1920 1080" width="1920" height="1080">
	<title>blur-svg</title>
	<style>
		.s0 { fill: #5370a9 } 
		.s1 { fill: #3eb6b7 } 
		.s2 { fill: #d3e1e6 } 
		.s3 { fill: #ffffff } 
		.s4 { fill: #f3ebe9 } 
		.s5 { fill: #61ccff } 
		.s6 { fill: #ffc930 } 
		.s7 { fill: #cecdce } 
		.s8 { fill: #3c2c5b } 
		.s9 { fill: none;stroke: #313131;stroke-linecap: round;stroke-linejoin: round;stroke-width: 4 } 
		.s10 { opacity: .2;fill: #b98900 } 
		.s11 { fill: none;stroke: #000000;stroke-linecap: round;stroke-linejoin: round;stroke-width: 4 } 
		.s12 { opacity: .2;fill: #050505 } 
		.s13 { fill: #000000 } 
		.s14 { fill: none;stroke: #2a4552;stroke-linecap: round;stroke-linejoin: round;stroke-width: 4 } 
		.s15 { fill: none;stroke: #231f20;stroke-linecap: round;stroke-linejoin: round;stroke-width: 4 } 
	</style>
	<g id="Layer">
		<path id="Layer" class="s0" d="m0 0h1920v1080h-1920z"/>
		<path id="Layer" class="s1" d="m0 236c384 15.4 1536 61.6 1920 77v767h-1920z"/>
		<path id="Layer" class="s2" d="m0 906c384-37 1536-148 1920-185v359h-1920z"/>
	</g>
	<path id="Layer" class="s3" d="m992.5 166.3l-594-0.1c-40.2 0-72.7 32.6-72.7 72.8v558c0 40.3 32.5 72.8 72.7 72.8h594c40.2 0 72.7-32.5 72.7-72.8v-558c0-40.2-32.6-72.8-72.7-72.8z"/>
	<path id="Layer" class="s4" d="m405.3 295.4c16.6 0 29.9-13.4 29.9-29.9 0-16.5-13.3-29.9-29.9-29.9-16.5 0-29.9 13.4-29.9 29.9 0 16.5 13.4 29.9 29.9 29.9z"/>
	<path id="Layer" class="s4" d="m492.2 295.4c16.5 0 29.9-13.4 29.9-29.9 0-16.5-13.4-29.9-29.9-29.9-16.6 0-29.9 13.4-29.9 29.9 0 16.5 13.3 29.9 29.9 29.9z"/>
	<path id="Layer" class="s4" d="m579.1 295.4c16.6 0 30-13.4 30-29.9 0-16.5-13.4-29.9-30-29.9-16.5 0-29.9 13.4-29.9 29.9 0 16.5 13.4 29.9 29.9 29.9z"/>
	<path id="Layer" class="s5" d="m692 561.8v184.3c0 0.1 0 0.1-0.2 0.1-101.9-0.2-184.2-82.5-184.2-184.4 0-101.8 82.5-184.4 184.4-184.4z"/>
	<path id="Layer" class="s6" d="m692.2 561.8l175-56.8c0.2 0 0.2 0 0.2 0.2 31.3 96.8-21.6 200.7-118.2 232.3-18.4 6-37.5 9.1-56.8 8.9-0.2 0-0.2 0-0.2-0.2v-184.4q-0.3 0 0 0z"/>
	<path id="Layer" class="s7" d="m693 561l148.1-107.5h0.2c11.5 15.6 20.1 32.8 25.9 51 0 0.2 0 0.2-0.2 0.2l-174 56.3c-0.2 0.3 0 0.4 0 0z"/>
	<path id="Layer" class="s8" d="m692 561.4v-183.8c0-0.2 0-0.2 0.2-0.2 60.9 0 113 26.6 148.9 75.9v0.2l-149.1 107.9c0 0.2 0.2 0.2 0 0z"/>
	<path id="Layer" class="s3" d="m692.2 665.3c57.1 0 103.4-46.3 103.4-103.5 0-57.1-46.3-103.4-103.4-103.4-57.1 0-103.4 46.3-103.4 103.4 0 57.2 46.3 103.5 103.4 103.5z"/>
	<path id="Layer" fill-rule="evenodd" class="s9" d="m692 561.8c-11.7 0-21.1-9.5-21.1-21.2 0-11.7 9.6-21.1 21.3-21.1 11.7 0 21.1 9.6 21.1 21.1"/>
	<path id="Layer" fill-rule="evenodd" class="s9" d="m692 561.8c11.7 0 21.3 9.4 21.3 21.1 0 11.7-9.4 21.3-21.1 21.3-11.7 0-21.3-9.4-21.3-21.1"/>
	<path id="Layer" fill-rule="evenodd" class="s9" d="m692 519.5v-10.9"/>
	<path id="Layer" fill-rule="evenodd" class="s9" d="m691.8 615.1v-10.9"/>
	<path id="Layer" class="s6" d="m1131.2 639.6c-13.7 0-22.3-3-24.1-8.5-2-6.2 4.6-14.8 18.6-24.2 14.3-9.6 34-18.8 55.5-25.9 24.2-8 47.9-12.6 65.1-12.6 13.8 0 22.3 3 24.1 8.5 4.2 12.6-29 35.1-74 50.1-24.3 8-48 12.6-65.2 12.6z"/>
	<path id="Layer" class="s10" d="m1131.1 639.6c-14 0-22.3-2.9-24.1-8.5l-0.1-0.2 163.2-54.3 0.2 0.3q1 3.3-1 7.3c-6.6 13.1-36.6 30.7-73.1 42.8-24.2 8-47.9 12.6-65.1 12.6z"/>
	<path id="Layer" fill-rule="evenodd" class="s11" d="m1269.7 576.8l-161.2 51.8"/>
	<path id="Layer" class="s6" d="m1042.5 676.5c-13.3 0-36.8-27.2-54.6-63.3-9.6-19.5-16.4-39-19.1-54.9-2.7-16-0.8-26.4 5.1-29.3q1.6-0.8 3.8-0.8c13.3 0 36.8 27.2 54.5 63.2 9.6 19.5 16.4 39 19.1 54.9 2.7 16 0.9 26.4-5.1 29.4-1.2 0.6-2.7 0.8-3.7 0.8z"/>
	<path id="Layer" class="s10" d="m1042.5 676.4c-13.6 0-36.6-26.6-54.6-63.3-9.7-19.7-16.5-39.2-19.1-54.9-2.7-16-0.8-26.4 5.1-29.3l0.3-0.1 72.2 146.6-0.2 0.1c-0.9 0.6-2.2 0.9-3.7 0.9z"/>
	<path id="Layer" class="s6" d="m1089.7 659.1c-2 0-3.8-0.5-5.2-1.4-2.5-1.4-4.3-4-5.3-7.8-4.5-16.6 7-53.4 27.8-89.6 23.2-40.2 51.8-69.4 67.9-69.4 2 0 3.8 0.5 5.2 1.3 6.9 4 8.2 16.4 3.8 34.8-4.2 18.3-13.6 40.6-26.3 62.7-23.3 40.2-51.8 69.4-67.9 69.4z"/>
	<path id="Layer" class="s10" d="m1089.8 659.1c-2 0-3.8-0.5-5.2-1.4l-0.3-0.1 95.6-165.5 0.3 0.1c2.5 1.5 4.3 4.1 5.3 7.8 4.5 16.6-6.9 53.5-27.7 89.7-23.4 40.2-52 69.4-68 69.4z"/>
	<path id="Layer" fill-rule="evenodd" class="s11" d="m974.4 530.6l89 179.1"/>
	<path id="Layer" fill-rule="evenodd" class="s11" d="m1178.4 493.4l-122.9 216.3"/>
	<path id="Layer" class="s8" d="m962.8 869.5c-8.9-12.2-13.3-25.3-13.3-38.9 0-36 31.4-67.4 78.2-78.2l-16.9-61.8h102l-16.8 61.8c46.8 10.8 78.3 42.2 78.3 78.2 0 13.6-4.6 27-13.2 38.8l-0.2 0.1z"/>
	<path id="Layer" fill-rule="evenodd" class="s11" d="m1029.1 751.9h24.8"/>
	<path id="Layer" class="s12" d="m1125 869.5v-0.1l0.3-0.4c8.6-11.8 13.2-25.1 13.2-38.5 0-35.8-31.4-67-78-77.9h-0.2l16.9-62h35.6l-16.8 61.8c46.8 10.8 78.3 42.2 78.3 78.2 0 13.6-4.6 27-13.2 38.8l-0.2 0.1z"/>
	<path id="Layer" class="s13" d="m1061.8 719.6c-31.8 0-50.1-27.6-49.8-28.8l0.8-0.2h95 4.6c0 4.5-18.9 29-50.6 29z"/>
	<path id="Layer" class="s6" d="m297.1 275.6c-44.8 11.3-71.9 56.6-60.8 101.3 6.1 24.4 23 44.8 45.8 55.4 14.8 6.8 25.5 20 29.2 35.8l6.3 8.1 48.1-10.9 5.1-10.7c-3.5-15.6 0.4-32.1 10.8-44.5 29.5-35.4 25-88-10.5-117.7-20.5-17.1-48.1-23.4-74-16.8z"/>
	<path id="Layer" class="s5" d="m311.3 468.2l4.7 20.8c3.7 16.4 20 26.7 36.4 23 16.5-3.7 26.7-20 23-36.5l-4.6-20.7z"/>
	<path id="Layer" fill-rule="evenodd" class="s14" d="m311.3 468.1l59.6-13.5"/>
	<path id="Layer" fill-rule="evenodd" class="s14" d="m315 484.5l59.4-13.4"/>
	<path id="Layer" fill-rule="evenodd" class="s11" d="m331 463.6l-5.3-23.7c-3.6-15.9-13.3-29.8-27.1-38.5-10.4-6.6-17.6-17-20.3-29-2-8.5 3.4-16.9 11.8-18.8 8.5-1.9 16.9 3.5 18.8 11.9l2 8.8c1.2 5.5 6.6 8.9 12.1 7.7 5.4-1.3 8.9-6.7 7.6-12.1l-2-8.9c-1.9-8.5 3.5-16.9 11.9-18.8h0.2c8.5-1.9 16.9 3.5 18.8 11.9 2.7 12 0.6 24.6-6 35.1-8.7 13.8-11.6 30.5-8 46.5l5.4 23.6"/>
	<path id="Layer" fill-rule="evenodd" class="s15" d="m392.1 738.6c-46.2-29.6-120-61.1-148.5-9.9-28.5 51.2 23.8 215 82.7 206.6 55.1-7.8-29.6-146.6-120.1-158.4-90.5-11.8-89.5 121-48.2 108.2 26.8-8.2 10.2-78.9-83.5-76.2"/>
	<path id="Layer" fill-rule="evenodd" class="s15" d="m989.5 307.3l128.9-168.3"/>
	<path id="Layer" fill-rule="evenodd" class="s15" d="m1154.3 269.9l171.5-136.1"/>
	<path id="Layer" class="s8" d="m170.3 646.5c18.6 0 33.7 15.1 33.7 33.7 0 18.6-15.1 33.7-33.7 33.7-18.6 0-33.7-15.1-33.7-33.7 0-18.6 15.1-33.7 33.7-33.7z"/>
	<path id="Layer" class="s5" d="m1215.4 340.1c23 0 41.7 18.7 41.7 41.7 0 23.1-18.7 41.7-41.7 41.7-23 0-41.7-18.6-41.7-41.7 0-23 18.7-41.7 41.7-41.7z"/>
	<path id="Layer" class="s3" d="m477.2 121.4c14.2 0 25.7-11.5 25.7-25.7 0-14.2-11.5-25.7-25.7-25.7-14.2 0-25.7 11.5-25.7 25.7 0 14.2 11.5 25.7 25.7 25.7z"/>
</svg>