<svg class="main-svg" xmlns="http://www.w3.org/2000/svg" xmlns:xlink="http://www.w3.org/1999/xlink" width="700" height="500" style="" viewBox="0 0 700 500"><rect x="0" y="0" width="700" height="500" style="fill: rgb(252, 252, 252); fill-opacity: 1;"/><defs id="defs-727c6a"><g class="clips"><clipPath id="clip727c6axyplot" class="plotclip"><rect width="669" height="458"/></clipPath><clipPath class="axesclip" id="clip727c6ax"><rect x="26" y="0" width="669" height="500"/></clipPath><clipPath class="axesclip" id="clip727c6ay"><rect x="0" y="5" width="700" height="458"/></clipPath><clipPath class="axesclip" id="clip727c6axy"><rect x="26" y="5" width="669" height="458"/></clipPath></g><g class="gradients"/><g class="patterns"/></defs><g class="bglayer"><rect class="bg" x="26" y="5" width="669" height="458" style="fill: rgb(229, 236, 246); fill-opacity: 1; stroke-width: 0;"/></g><g class="layer-below"><g class="imagelayer"/><g class="shapelayer"/></g><g class="cartesianlayer"><g class="subplot xy"><g class="layer-subplot"><g class="shapelayer"/><g class="imagelayer"/></g><g class="minor-gridlayer"><g class="x"/><g class="y"/></g><g class="gridlayer"><g class="x"><path class="xgrid crisp" transform="translate(79.22,0)" d="M0,5v458" style="stroke: rgb(255, 255, 255); stroke-opacity: 1; stroke-width: 1px;"/><path class="xgrid crisp" transform="translate(185.65,0)" d="M0,5v458" style="stroke: rgb(255, 255, 255); stroke-opacity: 1; stroke-width: 1px;"/><path class="xgrid crisp" transform="translate(292.08,0)" d="M0,5v458" style="stroke: rgb(255, 255, 255); stroke-opacity: 1; stroke-width: 1px;"/><path class="xgrid crisp" transform="translate(398.51,0)" d="M0,5v458" style="stroke: rgb(255, 255, 255); stroke-opacity: 1; stroke-width: 1px;"/><path class="xgrid crisp" transform="translate(504.94,0)" d="M0,5v458" style="stroke: rgb(255, 255, 255); stroke-opacity: 1; stroke-width: 1px;"/><path class="xgrid crisp" transform="translate(611.38,0)" d="M0,5v458" style="stroke: rgb(255, 255, 255); stroke-opacity: 1; stroke-width: 1px;"/></g><g class="y"><path class="ygrid crisp" transform="translate(0,437.18)" d="M26,0h669" style="stroke: rgb(255, 255, 255); stroke-opacity: 1; stroke-width: 1px;"/><path class="ygrid crisp" transform="translate(0,378.71)" d="M26,0h669" style="stroke: rgb(255, 255, 255); stroke-opacity: 1; stroke-width: 1px;"/><path class="ygrid crisp" transform="translate(0,320.24)" d="M26,0h669" style="stroke: rgb(255, 255, 255); stroke-opacity: 1; stroke-width: 1px;"/><path class="ygrid crisp" transform="translate(0,261.77)" d="M26,0h669" style="stroke: rgb(255, 255, 255); stroke-opacity: 1; stroke-width: 1px;"/><path class="ygrid crisp" transform="translate(0,203.3)" d="M26,0h669" style="stroke: rgb(255, 255, 255); stroke-opacity: 1; stroke-width: 1px;"/><path class="ygrid crisp" transform="translate(0,144.84)" d="M26,0h669" style="stroke: rgb(255, 255, 255); stroke-opacity: 1; stroke-width: 1px;"/><path class="ygrid crisp" transform="translate(0,86.37)" d="M26,0h669" style="stroke: rgb(255, 255, 255); stroke-opacity: 1; stroke-width: 1px;"/><path class="ygrid crisp" transform="translate(0,27.9)" d="M26,0h669" style="stroke: rgb(255, 255, 255); stroke-opacity: 1; stroke-width: 1px;"/></g></g><g class="zerolinelayer"/><path class="xlines-below"/><path class="ylines-below"/><g class="overlines-below"/><g class="xaxislayer-below"/><g class="yaxislayer-below"/><g class="overaxes-below"/><g class="plot" transform="translate(26,5)" clip-path="url(#clip727c6axyplot)"><g class="boxlayer mlayer"><g class="trace boxes" style="opacity: 1;"><path class="box" d="M3.88,319.16H11.33M3.88,344.47H11.33V318.16H3.88ZM7.6,344.47V362.01M7.6,318.16V318.16" style="vector-effect: non-scaling-stroke; stroke-width: 2px; stroke: rgb(36, 181, 36); stroke-opacity: 1; fill: rgb(36, 181, 36); fill-opacity: 1; opacity: 1;"/><path class="box" d="M19.08,240.23H26.53M19.08,315.24H26.53V239.23H19.08ZM22.81,315.24V376.63M22.81,239.23V239.23" style="vector-effect: non-scaling-stroke; stroke-width: 2px; stroke: rgb(36, 181, 36); stroke-opacity: 1; fill: rgb(36, 181, 36); fill-opacity: 1; opacity: 1;"/><path class="box" d="M64.7,255.76999999999998H72.15M64.7,256.77H72.15V239.23H64.7ZM68.42,256.77V262.62M68.42,239.23V239.23" style="vector-effect: non-scaling-stroke; stroke-width: 2px; stroke: rgb(235, 31, 5); stroke-opacity: 1; fill: rgb(235, 31, 5); fill-opacity: 1; opacity: 1;"/><path class="box" d="M79.9,251.93H87.35M79.9,256.77H87.35V250.93H79.9ZM83.63,256.77V280.16M83.63,250.93V245.08" style="vector-effect: non-scaling-stroke; stroke-width: 2px; stroke: rgb(36, 181, 36); stroke-opacity: 1; fill: rgb(36, 181, 36); fill-opacity: 1; opacity: 1;"/><path class="box" d="M95.1,240.23H102.55M95.1,245.08H102.55V239.23H95.1ZM98.83,245.08V256.77M98.83,239.23V239.23" style="vector-effect: non-scaling-stroke; stroke-width: 2px; stroke: rgb(36, 181, 36); stroke-opacity: 1; fill: rgb(36, 181, 36); fill-opacity: 1; opacity: 1;"/><path class="box" d="M110.31,181.76H117.76M110.31,245.08H117.76V180.76H110.31ZM114.03,245.08V245.08M114.03,180.76V180.76" style="vector-effect: non-scaling-stroke; stroke-width: 2px; stroke: rgb(36, 181, 36); stroke-opacity: 1; fill: rgb(36, 181, 36); fill-opacity: 1; opacity: 1;"/><path class="box" d="M125.51,285.01H132.96M125.51,286.01H132.96V204.15H125.51ZM129.24,286.01V321.09M129.24,204.15V204.15" style="vector-effect: non-scaling-stroke; stroke-width: 2px; stroke: rgb(235, 31, 5); stroke-opacity: 1; fill: rgb(235, 31, 5); fill-opacity: 1; opacity: 1;"/><path class="box" d="M171.13,358.09H178.58M171.13,359.09H178.58V291.85H171.13ZM174.85,359.09V370.79M174.85,291.85V291.85" style="vector-effect: non-scaling-stroke; stroke-width: 2px; stroke: rgb(235, 31, 5); stroke-opacity: 1; fill: rgb(235, 31, 5); fill-opacity: 1; opacity: 1;"/><path class="box" d="M186.33,372.71H193.78M186.33,373.71H193.78V359.09H186.33ZM190.06,373.71V373.71M190.06,359.09V303.55" style="vector-effect: non-scaling-stroke; stroke-width: 2px; stroke: rgb(235, 31, 5); stroke-opacity: 1; fill: rgb(235, 31, 5); fill-opacity: 1; opacity: 1;"/><path class="box" d="M201.54,330.86H208.99M201.54,373.71H208.99V329.86H201.54ZM205.26,373.71V435.1M205.26,329.86V329.86" style="vector-effect: non-scaling-stroke; stroke-width: 2px; stroke: rgb(36, 181, 36); stroke-opacity: 1; fill: rgb(36, 181, 36); fill-opacity: 1; opacity: 1;"/><path class="box" d="M216.74,296.7H224.19M216.74,297.7H224.19V291.85H216.74ZM220.47,297.7V359.09M220.47,291.85V291.85" style="vector-effect: non-scaling-stroke; stroke-width: 2px; stroke: rgb(235, 31, 5); stroke-opacity: 1; fill: rgb(235, 31, 5); fill-opacity: 1; opacity: 1;"/><path class="box" d="M231.95,308.39H239.4M231.95,309.39H239.4V297.7H231.95ZM235.67,309.39V315.24M235.67,297.7V297.7" style="vector-effect: non-scaling-stroke; stroke-width: 2px; stroke: rgb(235, 31, 5); stroke-opacity: 1; fill: rgb(235, 31, 5); fill-opacity: 1; opacity: 1;"/><path class="box" d="M277.56,234.39H285.01M277.56,297.7H285.01V233.39H277.56ZM281.28,297.7V303.55M281.28,233.39V227.54" style="vector-effect: non-scaling-stroke; stroke-width: 2px; stroke: rgb(36, 181, 36); stroke-opacity: 1; fill: rgb(36, 181, 36); fill-opacity: 1; opacity: 1;"/><path class="box" d="M307.97,199.3H315.42M307.97,239.23H315.42V198.3H307.97ZM311.69,239.23V239.23M311.69,198.3V157.38" style="vector-effect: non-scaling-stroke; stroke-width: 2px; stroke: rgb(36, 181, 36); stroke-opacity: 1; fill: rgb(36, 181, 36); fill-opacity: 1; opacity: 1;"/><path class="box" d="M323.17,82.37H330.62M323.17,174.92H330.62V81.37H323.17ZM326.9,174.92V227.54M326.9,81.37V81.37" style="vector-effect: non-scaling-stroke; stroke-width: 2px; stroke: rgb(36, 181, 36); stroke-opacity: 1; fill: rgb(36, 181, 36); fill-opacity: 1; opacity: 1;"/><path class="box" d="M338.38,109.6H345.83M338.38,110.6H345.83V81.37H338.38ZM342.1,110.6V151.53M342.1,81.37V81.37" style="vector-effect: non-scaling-stroke; stroke-width: 2px; stroke: rgb(235, 31, 5); stroke-opacity: 1; fill: rgb(235, 31, 5); fill-opacity: 1; opacity: 1;"/><path class="box" d="M383.99,81.37H391.44M383.99,81.37H391.44V81.37H383.99ZM387.72,81.37V110.6M387.72,81.37V81.37" style="vector-effect: non-scaling-stroke; stroke-width: 2px; stroke: rgb(36, 181, 36); stroke-opacity: 1; fill: rgb(36, 181, 36); fill-opacity: 1; opacity: 1;"/><path class="box" d="M399.2,94.06H406.65M399.2,98.91H406.65V93.06H399.2ZM402.92,98.91V186.61M402.92,93.06V93.06" style="vector-effect: non-scaling-stroke; stroke-width: 2px; stroke: rgb(36, 181, 36); stroke-opacity: 1; fill: rgb(36, 181, 36); fill-opacity: 1; opacity: 1;"/><path class="box" d="M414.4,150.53H421.85M414.4,151.53H421.85V87.21H414.4ZM418.13,151.53V204.15M418.13,87.21V87.21" style="vector-effect: non-scaling-stroke; stroke-width: 2px; stroke: rgb(235, 31, 5); stroke-opacity: 1; fill: rgb(235, 31, 5); fill-opacity: 1; opacity: 1;"/><path class="box" d="M429.6,191.46H437.05M429.6,192.46H437.05V139.84H429.6ZM433.33,192.46V198.3M433.33,139.84V139.84" style="vector-effect: non-scaling-stroke; stroke-width: 2px; stroke: rgb(235, 31, 5); stroke-opacity: 1; fill: rgb(235, 31, 5); fill-opacity: 1; opacity: 1;"/><path class="box" d="M490.42,168.07H497.87M490.42,169.07H497.87V157.38H490.42ZM494.15,169.07V227.54M494.15,157.38V157.38" style="vector-effect: non-scaling-stroke; stroke-width: 2px; stroke: rgb(235, 31, 5); stroke-opacity: 1; fill: rgb(235, 31, 5); fill-opacity: 1; opacity: 1;"/><path class="box" d="M505.63,140.84H513.08M505.63,151.53H513.08V139.84H505.63ZM509.35,151.53V180.76M509.35,139.84V139.84" style="vector-effect: non-scaling-stroke; stroke-width: 2px; stroke: rgb(36, 181, 36); stroke-opacity: 1; fill: rgb(36, 181, 36); fill-opacity: 1; opacity: 1;"/><path class="box" d="M520.83,162.22H528.28M520.83,163.22H528.28V139.84H520.83ZM524.56,163.22V221.69M524.56,139.84V139.84" style="vector-effect: non-scaling-stroke; stroke-width: 2px; stroke: rgb(235, 31, 5); stroke-opacity: 1; fill: rgb(235, 31, 5); fill-opacity: 1; opacity: 1;"/><path class="box" d="M536.04,139.84H543.49M536.04,139.84H543.49V139.84H536.04ZM539.76,139.84V139.84M539.76,139.84V81.37" style="vector-effect: non-scaling-stroke; stroke-width: 2px; stroke: rgb(36, 181, 36); stroke-opacity: 1; fill: rgb(36, 181, 36); fill-opacity: 1; opacity: 1;"/><path class="box" d="M551.24,97.91H558.69M551.24,98.91H558.69V81.37H551.24ZM554.97,98.91V163.22M554.97,81.37V81.37" style="vector-effect: non-scaling-stroke; stroke-width: 2px; stroke: rgb(235, 31, 5); stroke-opacity: 1; fill: rgb(235, 31, 5); fill-opacity: 1; opacity: 1;"/><path class="box" d="M596.85,94.06H604.3M596.85,98.91H604.3V93.06H596.85ZM600.58,98.91V116.45M600.58,93.06V87.21" style="vector-effect: non-scaling-stroke; stroke-width: 2px; stroke: rgb(36, 181, 36); stroke-opacity: 1; fill: rgb(36, 181, 36); fill-opacity: 1; opacity: 1;"/><path class="box" d="M612.06,109.6H619.51M612.06,110.6H619.51V93.06H612.06ZM615.78,110.6V139.84M615.78,93.06V93.06" style="vector-effect: non-scaling-stroke; stroke-width: 2px; stroke: rgb(235, 31, 5); stroke-opacity: 1; fill: rgb(235, 31, 5); fill-opacity: 1; opacity: 1;"/><path class="box" d="M627.26,105.76H634.71M627.26,110.6H634.71V104.76H627.26ZM630.99,110.6V133.99M630.99,104.76V87.21" style="vector-effect: non-scaling-stroke; stroke-width: 2px; stroke: rgb(36, 181, 36); stroke-opacity: 1; fill: rgb(36, 181, 36); fill-opacity: 1; opacity: 1;"/><path class="box" d="M642.47,121.3H649.92M642.47,122.3H649.92V87.21H642.47ZM646.19,122.3V128.14M646.19,87.21V52.13" style="vector-effect: non-scaling-stroke; stroke-width: 2px; stroke: rgb(235, 31, 5); stroke-opacity: 1; fill: rgb(235, 31, 5); fill-opacity: 1; opacity: 1;"/><path class="box" d="M657.67,82.37H665.12M657.67,122.3H665.12V81.37H657.67ZM661.4,122.3V139.84M661.4,81.37V22.9" style="vector-effect: non-scaling-stroke; stroke-width: 2px; stroke: rgb(36, 181, 36); stroke-opacity: 1; fill: rgb(36, 181, 36); fill-opacity: 1; opacity: 1;"/></g></g></g><g class="overplot"/><path class="xlines-above crisp" d="M0,0" style="fill: none;"/><path class="ylines-above crisp" d="M0,0" style="fill: none;"/><g class="overlines-above"/><g class="xaxislayer-above"><g class="xtick"><text text-anchor="middle" x="0" y="476" transform="translate(79.22,0)" style="font-family: 'Open Sans', verdana, arial, sans-serif; font-size: 12px; fill: rgb(42, 63, 95); fill-opacity: 1; white-space: pre; opacity: 1;"><tspan class="line" dy="0em" x="0" y="476">Oct 16</tspan><tspan class="line" dy="1.3em" x="0" y="476">2022</tspan></text></g><g class="xtick"><text text-anchor="middle" x="0" y="476" style="font-family: 'Open Sans', verdana, arial, sans-serif; font-size: 12px; fill: rgb(42, 63, 95); fill-opacity: 1; white-space: pre; opacity: 1;" transform="translate(185.65,0)">Oct 23</text></g><g class="xtick"><text text-anchor="middle" x="0" y="476" style="font-family: 'Open Sans', verdana, arial, sans-serif; font-size: 12px; fill: rgb(42, 63, 95); fill-opacity: 1; white-space: pre; opacity: 1;" transform="translate(292.08,0)">Oct 30</text></g><g class="xtick"><text text-anchor="middle" x="0" y="476" style="font-family: 'Open Sans', verdana, arial, sans-serif; font-size: 12px; fill: rgb(42, 63, 95); fill-opacity: 1; white-space: pre; opacity: 1;" transform="translate(398.51,0)">Nov 6</text></g><g class="xtick"><text text-anchor="middle" x="0" y="476" style="font-family: 'Open Sans', verdana, arial, sans-serif; font-size: 12px; fill: rgb(42, 63, 95); fill-opacity: 1; white-space: pre; opacity: 1;" transform="translate(504.94,0)">Nov 13</text></g><g class="xtick"><text text-anchor="middle" x="0" y="476" style="font-family: 'Open Sans', verdana, arial, sans-serif; font-size: 12px; fill: rgb(42, 63, 95); fill-opacity: 1; white-space: pre; opacity: 1;" transform="translate(611.38,0)">Nov 20</text></g></g><g class="yaxislayer-above"><g class="ytick"><text text-anchor="end" x="25" y="4.199999999999999" transform="translate(0,437.18)" style="font-family: 'Open Sans', verdana, arial, sans-serif; font-size: 12px; fill: rgb(42, 63, 95); fill-opacity: 1; white-space: pre; opacity: 1;">4.6</text></g><g class="ytick"><text text-anchor="end" x="25" y="4.199999999999999" style="font-family: 'Open Sans', verdana, arial, sans-serif; font-size: 12px; fill: rgb(42, 63, 95); fill-opacity: 1; white-space: pre; opacity: 1;" transform="translate(0,378.71)">4.8</text></g><g class="ytick"><text text-anchor="end" x="25" y="4.199999999999999" style="font-family: 'Open Sans', verdana, arial, sans-serif; font-size: 12px; fill: rgb(42, 63, 95); fill-opacity: 1; white-space: pre; opacity: 1;" transform="translate(0,320.24)">5</text></g><g class="ytick"><text text-anchor="end" x="25" y="4.199999999999999" style="font-family: 'Open Sans', verdana, arial, sans-serif; font-size: 12px; fill: rgb(42, 63, 95); fill-opacity: 1; white-space: pre; opacity: 1;" transform="translate(0,261.77)">5.2</text></g><g class="ytick"><text text-anchor="end" x="25" y="4.199999999999999" style="font-family: 'Open Sans', verdana, arial, sans-serif; font-size: 12px; fill: rgb(42, 63, 95); fill-opacity: 1; white-space: pre; opacity: 1;" transform="translate(0,203.3)">5.4</text></g><g class="ytick"><text text-anchor="end" x="25" y="4.199999999999999" style="font-family: 'Open Sans', verdana, arial, sans-serif; font-size: 12px; fill: rgb(42, 63, 95); fill-opacity: 1; white-space: pre; opacity: 1;" transform="translate(0,144.84)">5.6</text></g><g class="ytick"><text text-anchor="end" x="25" y="4.199999999999999" style="font-family: 'Open Sans', verdana, arial, sans-serif; font-size: 12px; fill: rgb(42, 63, 95); fill-opacity: 1; white-space: pre; opacity: 1;" transform="translate(0,86.37)">5.8</text></g><g class="ytick"><text text-anchor="end" x="25" y="4.199999999999999" style="font-family: 'Open Sans', verdana, arial, sans-serif; font-size: 12px; fill: rgb(42, 63, 95); fill-opacity: 1; white-space: pre; opacity: 1;" transform="translate(0,27.9)">6</text></g></g><g class="overaxes-above"/></g></g><g class="polarlayer"/><g class="smithlayer"/><g class="ternarylayer"/><g class="geolayer"/><g class="funnelarealayer"/><g class="pielayer"/><g class="iciclelayer"/><g class="treemaplayer"/><g class="sunburstlayer"/><g class="glimages"/><defs id="topdefs-727c6a"><g class="clips"/></defs><g class="layer-above"><g class="imagelayer"/><g class="shapelayer"/></g><g class="infolayer"><g class="g-gtitle"/><g class="g-xtitle"/><g class="g-ytitle"/></g></svg>