<svg class="main-svg" xmlns="http://www.w3.org/2000/svg" xmlns:xlink="http://www.w3.org/1999/xlink" width="700" height="500" style="" viewBox="0 0 700 500"><rect x="0" y="0" width="700" height="500" style="fill: rgb(252, 252, 252); fill-opacity: 1;"/><defs id="defs-43963c"><g class="clips"><clipPath id="clip43963cxyplot" class="plotclip"><rect width="666" height="458"/></clipPath><clipPath class="axesclip" id="clip43963cx"><rect x="29" y="0" width="666" height="500"/></clipPath><clipPath class="axesclip" id="clip43963cy"><rect x="0" y="5" width="700" height="458"/></clipPath><clipPath class="axesclip" id="clip43963cxy"><rect x="29" y="5" width="666" height="458"/></clipPath></g><g class="gradients"/><g class="patterns"/></defs><g class="bglayer"><rect class="bg" x="29" y="5" width="666" height="458" style="fill: rgb(229, 236, 246); fill-opacity: 1; stroke-width: 0;"/></g><g class="layer-below"><g class="imagelayer"/><g class="shapelayer"/></g><g class="cartesianlayer"><g class="subplot xy"><g class="layer-subplot"><g class="shapelayer"/><g class="imagelayer"/></g><g class="minor-gridlayer"><g class="x"/><g class="y"/></g><g class="gridlayer"><g class="x"><path class="xgrid crisp" transform="translate(95.6,0)" d="M0,5v458" style="stroke: rgb(255, 255, 255); stroke-opacity: 1; stroke-width: 1px;"/><path class="xgrid crisp" transform="translate(199.2,0)" d="M0,5v458" style="stroke: rgb(255, 255, 255); stroke-opacity: 1; stroke-width: 1px;"/><path class="xgrid crisp" transform="translate(302.8,0)" d="M0,5v458" style="stroke: rgb(255, 255, 255); stroke-opacity: 1; stroke-width: 1px;"/><path class="xgrid crisp" transform="translate(406.4,0)" d="M0,5v458" style="stroke: rgb(255, 255, 255); stroke-opacity: 1; stroke-width: 1px;"/><path class="xgrid crisp" transform="translate(510,0)" d="M0,5v458" style="stroke: rgb(255, 255, 255); stroke-opacity: 1; stroke-width: 1px;"/><path class="xgrid crisp" transform="translate(613.6,0)" d="M0,5v458" style="stroke: rgb(255, 255, 255); stroke-opacity: 1; stroke-width: 1px;"/></g><g class="y"><path class="ygrid crisp" transform="translate(0,440.1)" d="M29,0h666" style="stroke: rgb(255, 255, 255); stroke-opacity: 1; stroke-width: 1px;"/><path class="ygrid crisp" transform="translate(0,391.03)" d="M29,0h666" style="stroke: rgb(255, 255, 255); stroke-opacity: 1; stroke-width: 1px;"/><path class="ygrid crisp" transform="translate(0,341.96)" d="M29,0h666" style="stroke: rgb(255, 255, 255); stroke-opacity: 1; stroke-width: 1px;"/><path class="ygrid crisp" transform="translate(0,292.89)" d="M29,0h666" style="stroke: rgb(255, 255, 255); stroke-opacity: 1; stroke-width: 1px;"/><path class="ygrid crisp" transform="translate(0,243.81)" d="M29,0h666" style="stroke: rgb(255, 255, 255); stroke-opacity: 1; stroke-width: 1px;"/><path class="ygrid crisp" transform="translate(0,194.74)" d="M29,0h666" style="stroke: rgb(255, 255, 255); stroke-opacity: 1; stroke-width: 1px;"/><path class="ygrid crisp" transform="translate(0,145.67)" d="M29,0h666" style="stroke: rgb(255, 255, 255); stroke-opacity: 1; stroke-width: 1px;"/><path class="ygrid crisp" transform="translate(0,96.6)" d="M29,0h666" style="stroke: rgb(255, 255, 255); stroke-opacity: 1; stroke-width: 1px;"/><path class="ygrid crisp" transform="translate(0,47.53)" d="M29,0h666" style="stroke: rgb(255, 255, 255); stroke-opacity: 1; stroke-width: 1px;"/></g></g><g class="zerolinelayer"/><path class="xlines-below"/><path class="ylines-below"/><g class="overlines-below"/><g class="xaxislayer-below"/><g class="yaxislayer-below"/><g class="overaxes-below"/><g class="plot" transform="translate(29,5)" clip-path="url(#clip43963cxyplot)"><g class="boxlayer mlayer"><g class="trace boxes" style="opacity: 1;"><path class="box" d="M3.77,190.74H11.03M3.77,238.81H11.03V189.74H3.77ZM7.4,238.81V268.26M7.4,189.74V189.74" style="vector-effect: non-scaling-stroke; stroke-width: 2px; stroke: rgb(36, 181, 36); stroke-opacity: 1; fill: rgb(36, 181, 36); fill-opacity: 1; opacity: 1;"/><path class="box" d="M18.57,267.26H25.83M18.57,268.26H25.83V189.74H18.57ZM22.2,268.26V268.26M22.2,189.74V189.74" style="vector-effect: non-scaling-stroke; stroke-width: 2px; stroke: rgb(235, 31, 5); stroke-opacity: 1; fill: rgb(235, 31, 5); fill-opacity: 1; opacity: 1;"/><path class="box" d="M33.37,238.81H40.63M33.37,238.81H40.63V238.81H33.37ZM37,238.81V238.81M37,238.81V238.81" style="vector-effect: non-scaling-stroke; stroke-width: 2px; stroke: rgb(36, 181, 36); stroke-opacity: 1; fill: rgb(36, 181, 36); fill-opacity: 1; opacity: 1;"/><path class="box" d="M77.77,286.89H85.03M77.77,287.89H85.03V278.07H77.77ZM81.4,287.89V307.51M81.4,278.07V278.07" style="vector-effect: non-scaling-stroke; stroke-width: 2px; stroke: rgb(235, 31, 5); stroke-opacity: 1; fill: rgb(235, 31, 5); fill-opacity: 1; opacity: 1;"/><path class="box" d="M92.57,247.63H99.83M92.57,248.63H99.83V238.81H92.57ZM96.2,248.63V287.89M96.2,238.81V238.81" style="vector-effect: non-scaling-stroke; stroke-width: 2px; stroke: rgb(235, 31, 5); stroke-opacity: 1; fill: rgb(235, 31, 5); fill-opacity: 1; opacity: 1;"/><path class="box" d="M107.37,230H114.63M107.37,238.81H114.63V229H107.37ZM111,238.81V238.81M111,229V140.67" style="vector-effect: non-scaling-stroke; stroke-width: 2px; stroke: rgb(36, 181, 36); stroke-opacity: 1; fill: rgb(36, 181, 36); fill-opacity: 1; opacity: 1;"/><path class="box" d="M122.17,140.67H129.43M122.17,140.67H129.43V140.67H122.17ZM125.8,140.67V209.37M125.8,140.67V140.67" style="vector-effect: non-scaling-stroke; stroke-width: 2px; stroke: rgb(36, 181, 36); stroke-opacity: 1; fill: rgb(36, 181, 36); fill-opacity: 1; opacity: 1;"/><path class="box" d="M136.97,279.07H144.23M136.97,287.89H144.23V278.07H136.97ZM140.6,287.89V287.89M140.6,278.07V189.74" style="vector-effect: non-scaling-stroke; stroke-width: 2px; stroke: rgb(36, 181, 36); stroke-opacity: 1; fill: rgb(36, 181, 36); fill-opacity: 1; opacity: 1;"/><path class="box" d="M181.37,228H188.63M181.37,229H188.63V199.56H181.37ZM185,229V229M185,199.56V199.56" style="vector-effect: non-scaling-stroke; stroke-width: 2px; stroke: rgb(235, 31, 5); stroke-opacity: 1; fill: rgb(235, 31, 5); fill-opacity: 1; opacity: 1;"/><path class="box" d="M196.17,286.89H203.43M196.17,287.89H203.43V209.37H196.17ZM199.8,287.89V287.89M199.8,209.37V209.37" style="vector-effect: non-scaling-stroke; stroke-width: 2px; stroke: rgb(235, 31, 5); stroke-opacity: 1; fill: rgb(235, 31, 5); fill-opacity: 1; opacity: 1;"/><path class="box" d="M225.77,229H233.03M225.77,229H233.03V229H225.77ZM229.4,229V229M229.4,229V229" style="vector-effect: non-scaling-stroke; stroke-width: 2px; stroke: rgb(36, 181, 36); stroke-opacity: 1; fill: rgb(36, 181, 36); fill-opacity: 1; opacity: 1;"/><path class="box" d="M240.57,286.89H247.83M240.57,287.89H247.83V229H240.57ZM244.2,287.89V287.89M244.2,229V229" style="vector-effect: non-scaling-stroke; stroke-width: 2px; stroke: rgb(235, 31, 5); stroke-opacity: 1; fill: rgb(235, 31, 5); fill-opacity: 1; opacity: 1;"/><path class="box" d="M284.97,298.7H292.23M284.97,317.33H292.23V297.7H284.97ZM288.6,317.33V356.59M288.6,297.7V297.7" style="vector-effect: non-scaling-stroke; stroke-width: 2px; stroke: rgb(36, 181, 36); stroke-opacity: 1; fill: rgb(36, 181, 36); fill-opacity: 1; opacity: 1;"/><path class="box" d="M314.57,288.89H321.83M314.57,297.7H321.83V287.89H314.57ZM318.2,297.7V317.33M318.2,287.89V160.3" style="vector-effect: non-scaling-stroke; stroke-width: 2px; stroke: rgb(36, 181, 36); stroke-opacity: 1; fill: rgb(36, 181, 36); fill-opacity: 1; opacity: 1;"/><path class="box" d="M329.37,318.33H336.63M329.37,366.4H336.63V317.33H329.37ZM333,366.4V435.1M333,317.33V317.33" style="vector-effect: non-scaling-stroke; stroke-width: 2px; stroke: rgb(36, 181, 36); stroke-opacity: 1; fill: rgb(36, 181, 36); fill-opacity: 1; opacity: 1;"/><path class="box" d="M344.17,337.96H351.43M344.17,435.1H351.43V336.96H344.17ZM347.8,435.1V435.1M347.8,336.96V327.14" style="vector-effect: non-scaling-stroke; stroke-width: 2px; stroke: rgb(36, 181, 36); stroke-opacity: 1; fill: rgb(36, 181, 36); fill-opacity: 1; opacity: 1;"/><path class="box" d="M388.57,335.96H395.83M388.57,336.96H395.83V297.7H388.57ZM392.2,336.96V336.96M392.2,297.7V297.7" style="vector-effect: non-scaling-stroke; stroke-width: 2px; stroke: rgb(235, 31, 5); stroke-opacity: 1; fill: rgb(235, 31, 5); fill-opacity: 1; opacity: 1;"/><path class="box" d="M403.37,345.77H410.63M403.37,346.77H410.63V287.89H403.37ZM407,346.77V386.03M407,287.89V287.89" style="vector-effect: non-scaling-stroke; stroke-width: 2px; stroke: rgb(235, 31, 5); stroke-opacity: 1; fill: rgb(235, 31, 5); fill-opacity: 1; opacity: 1;"/><path class="box" d="M418.17,375.21H425.43M418.17,376.21H425.43V317.33H418.17ZM421.8,376.21V386.03M421.8,317.33V317.33" style="vector-effect: non-scaling-stroke; stroke-width: 2px; stroke: rgb(235, 31, 5); stroke-opacity: 1; fill: rgb(235, 31, 5); fill-opacity: 1; opacity: 1;"/><path class="box" d="M432.97,308.51H440.23M432.97,376.21H440.23V307.51H432.97ZM436.6,376.21V386.03M436.6,307.51V307.51" style="vector-effect: non-scaling-stroke; stroke-width: 2px; stroke: rgb(36, 181, 36); stroke-opacity: 1; fill: rgb(36, 181, 36); fill-opacity: 1; opacity: 1;"/><path class="box" d="M492.17,239.81H499.43M492.17,307.51H499.43V238.81H492.17ZM495.8,307.51V317.33M495.8,238.81V238.81" style="vector-effect: non-scaling-stroke; stroke-width: 2px; stroke: rgb(36, 181, 36); stroke-opacity: 1; fill: rgb(36, 181, 36); fill-opacity: 1; opacity: 1;"/><path class="box" d="M506.97,161.3H514.23M506.97,238.81H514.23V160.3H506.97ZM510.6,238.81V238.81M510.6,160.3V160.3" style="vector-effect: non-scaling-stroke; stroke-width: 2px; stroke: rgb(36, 181, 36); stroke-opacity: 1; fill: rgb(36, 181, 36); fill-opacity: 1; opacity: 1;"/><path class="box" d="M521.77,180.93H529.03M521.77,189.74H529.03V179.93H521.77ZM525.4,189.74V189.74M525.4,179.93V179.93" style="vector-effect: non-scaling-stroke; stroke-width: 2px; stroke: rgb(36, 181, 36); stroke-opacity: 1; fill: rgb(36, 181, 36); fill-opacity: 1; opacity: 1;"/><path class="box" d="M536.57,151.49H543.83M536.57,238.81H543.83V150.49H536.57ZM540.2,238.81V415.47M540.2,150.49V101.41" style="vector-effect: non-scaling-stroke; stroke-width: 2px; stroke: rgb(36, 181, 36); stroke-opacity: 1; fill: rgb(36, 181, 36); fill-opacity: 1; opacity: 1;"/><path class="box" d="M551.37,112.23H558.63M551.37,278.07H558.63V111.23H551.37ZM555,278.07V278.07M555,111.23V42.53" style="vector-effect: non-scaling-stroke; stroke-width: 2px; stroke: rgb(36, 181, 36); stroke-opacity: 1; fill: rgb(36, 181, 36); fill-opacity: 1; opacity: 1;"/><path class="box" d="M595.77,43.53H603.03M595.77,140.67H603.03V42.53H595.77ZM599.4,140.67V140.67M599.4,42.53V22.9" style="vector-effect: non-scaling-stroke; stroke-width: 2px; stroke: rgb(36, 181, 36); stroke-opacity: 1; fill: rgb(36, 181, 36); fill-opacity: 1; opacity: 1;"/><path class="box" d="M610.57,247.63H617.83M610.57,248.63H617.83V62.16H610.57ZM614.2,248.63V248.63M614.2,62.16V62.16" style="vector-effect: non-scaling-stroke; stroke-width: 2px; stroke: rgb(235, 31, 5); stroke-opacity: 1; fill: rgb(235, 31, 5); fill-opacity: 1; opacity: 1;"/><path class="box" d="M625.37,131.86H632.63M625.37,238.81H632.63V130.86H625.37ZM629,238.81V238.81M629,130.86V130.86" style="vector-effect: non-scaling-stroke; stroke-width: 2px; stroke: rgb(36, 181, 36); stroke-opacity: 1; fill: rgb(36, 181, 36); fill-opacity: 1; opacity: 1;"/><path class="box" d="M640.17,228H647.43M640.17,229H647.43V189.74H640.17ZM643.8,229V229M643.8,189.74V140.67" style="vector-effect: non-scaling-stroke; stroke-width: 2px; stroke: rgb(235, 31, 5); stroke-opacity: 1; fill: rgb(235, 31, 5); fill-opacity: 1; opacity: 1;"/><path class="box" d="M654.97,159.3H662.23M654.97,160.3H662.23V150.49H654.97ZM658.6,160.3V258.44M658.6,150.49V150.49" style="vector-effect: non-scaling-stroke; stroke-width: 2px; stroke: rgb(235, 31, 5); stroke-opacity: 1; fill: rgb(235, 31, 5); fill-opacity: 1; opacity: 1;"/></g></g></g><g class="overplot"/><path class="xlines-above crisp" d="M0,0" style="fill: none;"/><path class="ylines-above crisp" d="M0,0" style="fill: none;"/><g class="overlines-above"/><g class="xaxislayer-above"><g class="xtick"><text text-anchor="middle" x="0" y="476" transform="translate(95.6,0)" style="font-family: 'Open Sans', verdana, arial, sans-serif; font-size: 12px; fill: rgb(42, 63, 95); fill-opacity: 1; white-space: pre; opacity: 1;"><tspan class="line" dy="0em" x="0" y="476">Oct 16</tspan><tspan class="line" dy="1.3em" x="0" y="476">2022</tspan></text></g><g class="xtick"><text text-anchor="middle" x="0" y="476" style="font-family: 'Open Sans', verdana, arial, sans-serif; font-size: 12px; fill: rgb(42, 63, 95); fill-opacity: 1; white-space: pre; opacity: 1;" transform="translate(199.2,0)">Oct 23</text></g><g class="xtick"><text text-anchor="middle" x="0" y="476" style="font-family: 'Open Sans', verdana, arial, sans-serif; font-size: 12px; fill: rgb(42, 63, 95); fill-opacity: 1; white-space: pre; opacity: 1;" transform="translate(302.8,0)">Oct 30</text></g><g class="xtick"><text text-anchor="middle" x="0" y="476" style="font-family: 'Open Sans', verdana, arial, sans-serif; font-size: 12px; fill: rgb(42, 63, 95); fill-opacity: 1; white-space: pre; opacity: 1;" transform="translate(406.4,0)">Nov 6</text></g><g class="xtick"><text text-anchor="middle" x="0" y="476" style="font-family: 'Open Sans', verdana, arial, sans-serif; font-size: 12px; fill: rgb(42, 63, 95); fill-opacity: 1; white-space: pre; opacity: 1;" transform="translate(510,0)">Nov 13</text></g><g class="xtick"><text text-anchor="middle" x="0" y="476" style="font-family: 'Open Sans', verdana, arial, sans-serif; font-size: 12px; fill: rgb(42, 63, 95); fill-opacity: 1; white-space: pre; opacity: 1;" transform="translate(613.6,0)">Nov 20</text></g></g><g class="yaxislayer-above"><g class="ytick"><text text-anchor="end" x="28" y="4.199999999999999" transform="translate(0,440.1)" style="font-family: 'Open Sans', verdana, arial, sans-serif; font-size: 12px; fill: rgb(42, 63, 95); fill-opacity: 1; white-space: pre; opacity: 1;">420</text></g><g class="ytick"><text text-anchor="end" x="28" y="4.199999999999999" style="font-family: 'Open Sans', verdana, arial, sans-serif; font-size: 12px; fill: rgb(42, 63, 95); fill-opacity: 1; white-space: pre; opacity: 1;" transform="translate(0,391.03)">425</text></g><g class="ytick"><text text-anchor="end" x="28" y="4.199999999999999" style="font-family: 'Open Sans', verdana, arial, sans-serif; font-size: 12px; fill: rgb(42, 63, 95); fill-opacity: 1; white-space: pre; opacity: 1;" transform="translate(0,341.96)">430</text></g><g class="ytick"><text text-anchor="end" x="28" y="4.199999999999999" style="font-family: 'Open Sans', verdana, arial, sans-serif; font-size: 12px; fill: rgb(42, 63, 95); fill-opacity: 1; white-space: pre; opacity: 1;" transform="translate(0,292.89)">435</text></g><g class="ytick"><text text-anchor="end" x="28" y="4.199999999999999" style="font-family: 'Open Sans', verdana, arial, sans-serif; font-size: 12px; fill: rgb(42, 63, 95); fill-opacity: 1; white-space: pre; opacity: 1;" transform="translate(0,243.81)">440</text></g><g class="ytick"><text text-anchor="end" x="28" y="4.199999999999999" style="font-family: 'Open Sans', verdana, arial, sans-serif; font-size: 12px; fill: rgb(42, 63, 95); fill-opacity: 1; white-space: pre; opacity: 1;" transform="translate(0,194.74)">445</text></g><g class="ytick"><text text-anchor="end" x="28" y="4.199999999999999" style="font-family: 'Open Sans', verdana, arial, sans-serif; font-size: 12px; fill: rgb(42, 63, 95); fill-opacity: 1; white-space: pre; opacity: 1;" transform="translate(0,145.67)">450</text></g><g class="ytick"><text text-anchor="end" x="28" y="4.199999999999999" style="font-family: 'Open Sans', verdana, arial, sans-serif; font-size: 12px; fill: rgb(42, 63, 95); fill-opacity: 1; white-space: pre; opacity: 1;" transform="translate(0,96.6)">455</text></g><g class="ytick"><text text-anchor="end" x="28" y="4.199999999999999" style="font-family: 'Open Sans', verdana, arial, sans-serif; font-size: 12px; fill: rgb(42, 63, 95); fill-opacity: 1; white-space: pre; opacity: 1;" transform="translate(0,47.53)">460</text></g></g><g class="overaxes-above"/></g></g><g class="polarlayer"/><g class="smithlayer"/><g class="ternarylayer"/><g class="geolayer"/><g class="funnelarealayer"/><g class="pielayer"/><g class="iciclelayer"/><g class="treemaplayer"/><g class="sunburstlayer"/><g class="glimages"/><defs id="topdefs-43963c"><g class="clips"/></defs><g class="layer-above"><g class="imagelayer"/><g class="shapelayer"/></g><g class="infolayer"><g class="g-gtitle"/><g class="g-xtitle"/><g class="g-ytitle"/></g></svg>