<svg width="217" height="36" viewBox="0 0 217 36" fill="none" xmlns="http://www.w3.org/2000/svg">
<path d="M9.6 28.4C7.78667 28.4 6.21333 27.9733 4.88 27.12C3.54667 26.24 2.53333 25.0533 1.84 23.56C1.14667 22.0667 0.8 20.4133 0.8 18.6C0.8 16.7867 1.14667 15.1333 1.84 13.64C2.53333 12.1467 3.54667 10.9733 4.88 10.12C6.21333 9.24 7.78667 8.8 9.6 8.8C11.4133 8.8 12.9867 9.24 14.32 10.12C15.6533 10.9733 16.6667 12.1467 17.36 13.64C18.0533 15.1333 18.4 16.7867 18.4 18.6C18.4 20.4133 18.0533 22.0667 17.36 23.56C16.6667 25.0533 15.6533 26.24 14.32 27.12C12.9867 27.9733 11.4133 28.4 9.6 28.4ZM9.6 26.8C10.5867 26.8 11.4533 26.44 12.2 25.72C12.9733 25 13.56 24.0133 13.96 22.76C14.3867 21.5067 14.6 20.12 14.6 18.6C14.6 17.08 14.3867 15.6933 13.96 14.44C13.56 13.1867 12.9733 12.2 12.2 11.48C11.4533 10.76 10.5867 10.4 9.6 10.4C8.61333 10.4 7.73333 10.76 6.96 11.48C6.21333 12.2 5.62667 13.1867 5.2 14.44C4.8 15.6933 4.6 17.08 4.6 18.6C4.6 20.12 4.8 21.5067 5.2 22.76C5.62667 24.0133 6.21333 25 6.96 25.72C7.73333 26.44 8.61333 26.8 9.6 26.8ZM23.6909 14C23.6909 12.64 23.5043 11.64 23.1309 11C22.7576 10.3333 22.0109 10 20.8909 10H20.0909V9.2H23.6909C24.6776 9.2 25.4243 9.33333 25.9309 9.6C26.4643 9.86667 26.8509 10.2667 27.0909 10.8H27.2909C27.8509 10.24 28.5709 9.77333 29.4509 9.4C30.3576 9 31.3709 8.8 32.4909 8.8C34.4909 8.8 36.1176 9.33333 37.3709 10.4C38.6509 11.4667 39.2909 13.3333 39.2909 16V28H35.6909V16C35.6909 14.1333 35.2643 12.7733 34.4109 11.92C33.5843 11.04 32.5443 10.6 31.2909 10.6C29.8776 10.6 28.5443 11.3067 27.2909 12.72V28H23.6909V14ZM49.6697 3.2H46.0697C42.7364 3.2 41.0697 4.73333 41.0697 7.8H40.2697V4.8C40.2697 2.66667 41.403 1.6 43.6697 1.6H62.2697V3.2H53.2697V28H49.6697V3.2ZM63.9578 14C63.9578 12.64 63.7711 11.64 63.3978 11C63.0245 10.3333 62.2778 10 61.1578 10H60.7578V9.2H63.9578C64.9711 9.2 65.7311 9.34667 66.2378 9.64C66.7711 9.90667 67.1445 10.36 67.3578 11H67.5578C68.0378 10.3867 68.6778 9.86667 69.4778 9.44C70.3045 9.01333 71.2645 8.8 72.3578 8.8C73.4245 8.8 74.2245 9 74.7578 9.4C75.2111 9.74667 75.6778 10.3467 76.1578 11.2L74.5578 12.4C74.2645 12 73.8378 11.7067 73.2778 11.52C72.7178 11.3067 72.0778 11.2 71.3578 11.2C70.5578 11.2 69.8245 11.3867 69.1578 11.76C68.4911 12.1067 67.9578 12.5867 67.5578 13.2V28H63.9578V14ZM86.5047 28.4C84.6914 28.4 83.158 27.9733 81.9047 27.12C80.6514 26.24 79.7047 25.0667 79.0647 23.6C78.4247 22.1067 78.1047 20.44 78.1047 18.6C78.1047 16.7867 78.4247 15.1333 79.0647 13.64C79.7047 12.1467 80.6247 10.9733 81.8247 10.12C83.0514 9.24 84.478 8.8 86.1047 8.8C88.798 8.8 90.798 9.56 92.1047 11.08C93.438 12.5733 94.1047 14.7467 94.1047 17.6L94.0247 19.2H81.9047C81.9047 21.44 82.3847 23.2667 83.3447 24.68C84.3047 26.0933 85.6247 26.8 87.3047 26.8C88.558 26.8 89.6114 26.5333 90.4647 26C91.3447 25.4667 92.158 24.6667 92.9047 23.6L93.7047 24.2C92.8247 25.6667 91.798 26.7333 90.6247 27.4C89.4514 28.0667 88.078 28.4 86.5047 28.4ZM90.3047 17.6C90.3047 15.2533 89.958 13.4667 89.2647 12.24C88.5714 11.0133 87.518 10.4 86.1047 10.4C85.3047 10.4 84.5847 10.72 83.9447 11.36C83.3047 11.9733 82.798 12.8267 82.4247 13.92C82.078 15.0133 81.9047 16.24 81.9047 17.6H90.3047ZM99.3159 14C99.3159 12.64 99.1293 11.64 98.7559 11C98.3826 10.3333 97.6359 10 96.5159 10H95.7159V9.2H99.3159C100.303 9.2 101.049 9.33333 101.556 9.6C102.089 9.86667 102.476 10.2667 102.716 10.8H102.916C103.476 10.24 104.196 9.77333 105.076 9.4C105.983 9 106.996 8.8 108.116 8.8C110.116 8.8 111.743 9.33333 112.996 10.4C114.276 11.4667 114.916 13.3333 114.916 16V28H111.316V16C111.316 14.1333 110.889 12.7733 110.036 11.92C109.209 11.04 108.169 10.6 106.916 10.6C105.503 10.6 104.169 11.3067 102.916 12.72V28H99.3159V14ZM126.674 28.4C124.354 28.4 122.567 27.48 121.314 25.64C120.087 23.8 119.474 21.4533 119.474 18.6C119.474 15.7467 120.114 13.4 121.394 11.56C122.7 9.72 124.594 8.8 127.074 8.8C128.087 8.8 128.98 8.90667 129.754 9.12C130.527 9.33333 131.3 9.62667 132.074 10V6.4C132.074 5.04 131.887 4.04 131.514 3.4C131.14 2.73333 130.394 2.4 129.274 2.4H128.474V1.6H132.074C133.06 1.6 133.794 1.73333 134.274 2C134.78 2.24 135.14 2.69333 135.354 3.36C135.567 4.02667 135.674 5.04 135.674 6.4V28H133.674L132.274 26.2H132.074C131.487 26.8667 130.794 27.4 129.994 27.8C129.22 28.2 128.114 28.4 126.674 28.4ZM127.874 26.8C128.967 26.8 129.794 26.6 130.354 26.2C130.914 25.8 131.487 25.2 132.074 24.4V11.6C131.274 11.2267 130.58 10.9333 129.994 10.72C129.407 10.5067 128.834 10.4 128.274 10.4C126.567 10.4 125.3 11.1467 124.474 12.64C123.674 14.1333 123.274 16.12 123.274 18.6C123.274 21.0533 123.66 23.04 124.434 24.56C125.207 26.0533 126.354 26.8 127.874 26.8ZM149.85 28.68C148.384 28.68 146.944 28.48 145.53 28.08C144.117 27.68 142.957 27.1067 142.05 26.36C141.17 25.6133 140.73 24.76 140.73 23.8V19.52H141.45C141.904 22.1867 142.784 24.12 144.09 25.32C145.397 26.4933 147.197 27.08 149.49 27.08C150.93 27.08 152.157 26.72 153.17 26C154.21 25.28 154.73 24.28 154.73 23C154.73 21.88 154.384 20.9067 153.69 20.08C152.997 19.2533 151.877 18.3867 150.33 17.48L145.41 14.56C143.704 13.5467 142.49 12.52 141.77 11.48C141.077 10.44 140.73 9.17333 140.73 7.68C140.73 5.62667 141.437 3.98667 142.85 2.76C144.29 1.50667 146.17 0.879999 148.49 0.879999C149.85 0.879999 151.197 1.08 152.53 1.48C153.864 1.85333 154.957 2.41333 155.81 3.16C156.69 3.88 157.13 4.72 157.13 5.68V9.96H156.41C155.957 7.29333 155.09 5.38667 153.81 4.24C152.557 3.06667 150.784 2.48 148.49 2.48C147.264 2.48 146.184 2.85333 145.25 3.6C144.317 4.34667 143.85 5.32 143.85 6.52C143.85 7.61333 144.184 8.52 144.85 9.24C145.544 9.96 146.69 10.8 148.29 11.76L153.21 14.68C155.024 15.7733 156.304 16.7867 157.05 17.72C157.797 18.6533 158.17 19.84 158.17 21.28C158.17 23.52 157.424 25.32 155.93 26.68C154.437 28.0133 152.41 28.68 149.85 28.68ZM163.378 14C163.378 12.64 163.192 11.64 162.818 11C162.445 10.3333 161.698 10 160.578 10H159.778V9.2H163.378C164.392 9.2 165.152 9.34667 165.658 9.64C166.192 9.90667 166.565 10.36 166.778 11H166.978C167.458 10.3867 168.138 9.86667 169.018 9.44C169.898 9.01333 171.018 8.8 172.378 8.8C174.672 8.8 176.445 9.73333 177.698 11.6C178.952 13.44 179.578 15.7733 179.578 18.6C179.578 21.4533 178.925 23.8 177.618 25.64C176.338 27.48 174.458 28.4 171.978 28.4C170.965 28.4 170.072 28.2933 169.298 28.08C168.525 27.8667 167.752 27.5733 166.978 27.2V35.6H163.378V14ZM170.778 26.8C172.485 26.8 173.738 26.0533 174.538 24.56C175.365 23.0667 175.778 21.08 175.778 18.6C175.778 16.1467 175.392 14.1733 174.618 12.68C173.845 11.16 172.698 10.4 171.178 10.4C169.392 10.4 167.992 11.2 166.978 12.8V25.6C167.778 25.9733 168.472 26.2667 169.058 26.48C169.645 26.6933 170.218 26.8 170.778 26.8ZM192.022 28.4C190.209 28.4 188.635 27.9733 187.302 27.12C185.969 26.24 184.955 25.0533 184.262 23.56C183.569 22.0667 183.222 20.4133 183.222 18.6C183.222 16.7867 183.569 15.1333 184.262 13.64C184.955 12.1467 185.969 10.9733 187.302 10.12C188.635 9.24 190.209 8.8 192.022 8.8C193.835 8.8 195.409 9.24 196.742 10.12C198.075 10.9733 199.089 12.1467 199.782 13.64C200.475 15.1333 200.822 16.7867 200.822 18.6C200.822 20.4133 200.475 22.0667 199.782 23.56C199.089 25.0533 198.075 26.24 196.742 27.12C195.409 27.9733 193.835 28.4 192.022 28.4ZM192.022 26.8C193.009 26.8 193.875 26.44 194.622 25.72C195.395 25 195.982 24.0133 196.382 22.76C196.809 21.5067 197.022 20.12 197.022 18.6C197.022 17.08 196.809 15.6933 196.382 14.44C195.982 13.1867 195.395 12.2 194.622 11.48C193.875 10.76 193.009 10.4 192.022 10.4C191.035 10.4 190.155 10.76 189.382 11.48C188.635 12.2 188.049 13.1867 187.622 14.44C187.222 15.6933 187.022 17.08 187.022 18.6C187.022 20.12 187.222 21.5067 187.622 22.76C188.049 24.0133 188.635 25 189.382 25.72C190.155 26.44 191.035 26.8 192.022 26.8ZM211.073 28.4C209.579 28.4 208.406 27.9733 207.553 27.12C206.699 26.2667 206.273 24.96 206.273 23.2V10.8H203.473V9.2H206.273V5.6L208.273 3.2H209.873V9.2H214.673V10.8H209.873V23.2C209.873 25.6 210.806 26.8 212.673 26.8C213.313 26.8 213.846 26.7333 214.273 26.6C214.726 26.4667 215.193 26.2667 215.673 26L216.073 26.8C215.459 27.2533 214.779 27.64 214.033 27.96C213.286 28.2533 212.299 28.4 211.073 28.4Z" fill="#2E6057"/>
</svg>
