<svg class="main-svg" xmlns="http://www.w3.org/2000/svg" xmlns:xlink="http://www.w3.org/1999/xlink" width="700" height="500" style="" viewBox="0 0 700 500"><rect x="0" y="0" width="700" height="500" style="fill: rgb(252, 252, 252); fill-opacity: 1;"/><defs id="defs-e516df"><g class="clips"><clipPath id="clipe516dfxyplot" class="plotclip"><rect width="674" height="458"/></clipPath><clipPath class="axesclip" id="clipe516dfx"><rect x="21" y="0" width="674" height="500"/></clipPath><clipPath class="axesclip" id="clipe516dfy"><rect x="0" y="5" width="700" height="458"/></clipPath><clipPath class="axesclip" id="clipe516dfxy"><rect x="21" y="5" width="674" height="458"/></clipPath></g><g class="gradients"/><g class="patterns"/></defs><g class="bglayer"><rect class="bg" x="21" y="5" width="674" height="458" style="fill: rgb(229, 236, 246); fill-opacity: 1; stroke-width: 0;"/></g><g class="layer-below"><g class="imagelayer"/><g class="shapelayer"/></g><g class="cartesianlayer"><g class="subplot xy"><g class="layer-subplot"><g class="shapelayer"/><g class="imagelayer"/></g><g class="gridlayer"><g class="x"><path class="xgrid crisp" transform="translate(130.53,0)" d="M0,5v458" style="stroke: rgb(255, 255, 255); stroke-opacity: 1; stroke-width: 1px;"/><path class="xgrid crisp" transform="translate(248.48,0)" d="M0,5v458" style="stroke: rgb(255, 255, 255); stroke-opacity: 1; stroke-width: 1px;"/><path class="xgrid crisp" transform="translate(366.43,0)" d="M0,5v458" style="stroke: rgb(255, 255, 255); stroke-opacity: 1; stroke-width: 1px;"/><path class="xgrid crisp" transform="translate(484.38,0)" d="M0,5v458" style="stroke: rgb(255, 255, 255); stroke-opacity: 1; stroke-width: 1px;"/><path class="xgrid crisp" transform="translate(602.33,0)" d="M0,5v458" style="stroke: rgb(255, 255, 255); stroke-opacity: 1; stroke-width: 1px;"/></g><g class="y"><path class="ygrid crisp" transform="translate(0,360.78)" d="M21,0h674" style="stroke: rgb(255, 255, 255); stroke-opacity: 1; stroke-width: 1px;"/><path class="ygrid crisp" transform="translate(0,258.03999999999996)" d="M21,0h674" style="stroke: rgb(255, 255, 255); stroke-opacity: 1; stroke-width: 1px;"/><path class="ygrid crisp" transform="translate(0,155.3)" d="M21,0h674" style="stroke: rgb(255, 255, 255); stroke-opacity: 1; stroke-width: 1px;"/><path class="ygrid crisp" transform="translate(0,52.56)" d="M21,0h674" style="stroke: rgb(255, 255, 255); stroke-opacity: 1; stroke-width: 1px;"/></g></g><g class="zerolinelayer"/><path class="xlines-below"/><path class="ylines-below"/><g class="overlines-below"/><g class="xaxislayer-below"/><g class="yaxislayer-below"/><g class="overaxes-below"/><g class="plot" transform="translate(21,5)" clip-path="url(#clipe516dfxyplot)"><g class="boxlayer mlayer"><g class="trace boxes" style="opacity: 1;"><path class="box" d="M4.3,290.67H12.55M4.3,291.67H12.55V222.63H4.3ZM8.43,291.67V301.95M8.43,222.63V211.94" style="vector-effect: non-scaling-stroke; stroke-width: 2px; stroke: rgb(255, 4, 0); stroke-opacity: 1; fill: rgb(255, 4, 0); fill-opacity: 1; opacity: 1;"/><path class="box" d="M21.15,260.21H29.4M21.15,322.91H29.4V259.21H21.15ZM25.28,322.91V352.91M25.28,259.21V253.45" style="vector-effect: non-scaling-stroke; stroke-width: 2px; stroke: rgb(39, 204, 2); stroke-opacity: 1; fill: rgb(39, 204, 2); fill-opacity: 1; opacity: 1;"/><path class="box" d="M38,289.03H46.25M38,290.03H46.25V255.51H38ZM42.13,290.03V290.03M42.13,255.51V222.22" style="vector-effect: non-scaling-stroke; stroke-width: 2px; stroke: rgb(255, 4, 0); stroke-opacity: 1; fill: rgb(255, 4, 0); fill-opacity: 1; opacity: 1;"/><path class="box" d="M54.85,396.7H63.1M54.85,397.7H63.1V357.43H54.85ZM58.98,397.7V435.1M58.98,357.43V337.29" style="vector-effect: non-scaling-stroke; stroke-width: 2px; stroke: rgb(255, 4, 0); stroke-opacity: 1; fill: rgb(255, 4, 0); fill-opacity: 1; opacity: 1;"/><path class="box" d="M71.7,256.91999999999996H79.95M71.7,384.55H79.95V255.92H71.7ZM75.83,384.55V386.19M75.83,255.92V242.77" style="vector-effect: non-scaling-stroke; stroke-width: 2px; stroke: rgb(39, 204, 2); stroke-opacity: 1; fill: rgb(39, 204, 2); fill-opacity: 1; opacity: 1;"/><path class="box" d="M122.25,232.26H130.5M122.25,284.69H130.5V231.26H122.25ZM126.38,284.69V310.58M126.38,231.26V218.11" style="vector-effect: non-scaling-stroke; stroke-width: 2px; stroke: rgb(39, 204, 2); stroke-opacity: 1; fill: rgb(39, 204, 2); fill-opacity: 1; opacity: 1;"/><path class="box" d="M139.1,191.99H147.35M139.1,228.38H147.35V190.99H139.1ZM143.23,228.38V228.38M143.23,190.99V147.83" style="vector-effect: non-scaling-stroke; stroke-width: 2px; stroke: rgb(39, 204, 2); stroke-opacity: 1; fill: rgb(39, 204, 2); fill-opacity: 1; opacity: 1;"/><path class="box" d="M155.95,100.75H164.2M155.95,189.34H164.2V99.75H155.95ZM160.08,189.34V209.89M160.08,99.75V99.75" style="vector-effect: non-scaling-stroke; stroke-width: 2px; stroke: rgb(39, 204, 2); stroke-opacity: 1; fill: rgb(39, 204, 2); fill-opacity: 1; opacity: 1;"/><path class="box" d="M172.8,67.05H181.05M172.8,68.11H181.05V66.05H172.8ZM176.93,68.11V91.94M176.93,66.05V22.9" style="vector-effect: non-scaling-stroke; stroke-width: 2px; stroke: rgb(39, 204, 2); stroke-opacity: 1; fill: rgb(39, 204, 2); fill-opacity: 1; opacity: 1;"/><path class="box" d="M189.65,161.22H197.9M189.65,162.22H197.9V89.07H189.65ZM193.78,162.22V177.01M193.78,89.07V74.68" style="vector-effect: non-scaling-stroke; stroke-width: 2px; stroke: rgb(255, 4, 0); stroke-opacity: 1; fill: rgb(255, 4, 0); fill-opacity: 1; opacity: 1;"/><path class="box" d="M240.2,95.82H248.45M240.2,191.4H248.45V94.82H240.2ZM244.33,191.4V191.4M244.33,94.82V76.33" style="vector-effect: non-scaling-stroke; stroke-width: 2px; stroke: rgb(39, 204, 2); stroke-opacity: 1; fill: rgb(39, 204, 2); fill-opacity: 1; opacity: 1;"/><path class="box" d="M257.05,100.39H265.3M257.05,101.39H265.3V94.82H257.05ZM261.18,101.39V123.18M261.18,94.82V56.6" style="vector-effect: non-scaling-stroke; stroke-width: 2px; stroke: rgb(255, 4, 0); stroke-opacity: 1; fill: rgb(255, 4, 0); fill-opacity: 1; opacity: 1;"/><path class="box" d="M273.9,169.03H282.15M273.9,170.03H282.15V65.64H273.9ZM278.03,170.03V189.34M278.03,65.64V48.38" style="vector-effect: non-scaling-stroke; stroke-width: 2px; stroke: rgb(255, 4, 0); stroke-opacity: 1; fill: rgb(255, 4, 0); fill-opacity: 1; opacity: 1;"/><path class="box" d="M290.75,158.29H299M290.75,166.33H299V157.29H290.75ZM294.88,166.33V183.18M294.88,157.29V141.67" style="vector-effect: non-scaling-stroke; stroke-width: 2px; stroke: rgb(39, 204, 2); stroke-opacity: 1; fill: rgb(39, 204, 2); fill-opacity: 1; opacity: 1;"/><path class="box" d="M307.6,97.87H315.85M307.6,157.29H315.85V96.87H307.6ZM311.73,157.29V166.74M311.73,96.87V92.76" style="vector-effect: non-scaling-stroke; stroke-width: 2px; stroke: rgb(39, 204, 2); stroke-opacity: 1; fill: rgb(39, 204, 2); fill-opacity: 1; opacity: 1;"/><path class="box" d="M358.15,173.96H366.4M358.15,174.96H366.4V108.79H358.15ZM362.28,174.96V174.96M362.28,108.79V100.57" style="vector-effect: non-scaling-stroke; stroke-width: 2px; stroke: rgb(255, 4, 0); stroke-opacity: 1; fill: rgb(255, 4, 0); fill-opacity: 1; opacity: 1;"/><path class="box" d="M375,151.3H383.25M375,166.74H383.25V150.3H375ZM379.13,166.74V183.18M379.13,150.3V135.09" style="vector-effect: non-scaling-stroke; stroke-width: 2px; stroke: rgb(39, 204, 2); stroke-opacity: 1; fill: rgb(39, 204, 2); fill-opacity: 1; opacity: 1;"/><path class="box" d="M391.85,159.98H400.1M391.85,160.98H400.1V125.23H391.85ZM395.98,160.98V178.25M395.98,125.23V124.82" style="vector-effect: non-scaling-stroke; stroke-width: 2px; stroke: rgb(255, 4, 0); stroke-opacity: 1; fill: rgb(255, 4, 0); fill-opacity: 1; opacity: 1;"/><path class="box" d="M408.7,117.6H416.95M408.7,146.19H416.95V116.6H408.7ZM412.83,146.19V156.46M412.83,116.6V112.49" style="vector-effect: non-scaling-stroke; stroke-width: 2px; stroke: rgb(39, 204, 2); stroke-opacity: 1; fill: rgb(39, 204, 2); fill-opacity: 1; opacity: 1;"/><path class="box" d="M425.55,153.82H433.8M425.55,154.82H433.8V110.85H425.55ZM429.68,154.82V159.75M429.68,110.85V89.89" style="vector-effect: non-scaling-stroke; stroke-width: 2px; stroke: rgb(255, 4, 0); stroke-opacity: 1; fill: rgb(255, 4, 0); fill-opacity: 1; opacity: 1;"/><path class="box" d="M476.1,89.65H484.35M476.1,151.94H484.35V88.65H476.1ZM480.23,151.94V152.35M480.23,88.65V88.65" style="vector-effect: non-scaling-stroke; stroke-width: 2px; stroke: rgb(39, 204, 2); stroke-opacity: 1; fill: rgb(39, 204, 2); fill-opacity: 1; opacity: 1;"/><path class="box" d="M492.95,87.6H501.2M492.95,87.83H501.2V86.6H492.95ZM497.08,87.83V110.85M497.08,86.6V79.2" style="vector-effect: non-scaling-stroke; stroke-width: 2px; stroke: rgb(255, 4, 0); stroke-opacity: 1; fill: rgb(255, 4, 0); fill-opacity: 1; opacity: 1;"/><path class="box" d="M509.8,69.93H518.05M509.8,78.38H518.05V68.93H509.8ZM513.93,78.38V93.59M513.93,68.93V64.82" style="vector-effect: non-scaling-stroke; stroke-width: 2px; stroke: rgb(39, 204, 2); stroke-opacity: 1; fill: rgb(39, 204, 2); fill-opacity: 1; opacity: 1;"/><path class="box" d="M526.65,82.72H534.9M526.65,83.72H534.9V68.93H526.65ZM530.78,83.72V114.96M530.78,68.93V64" style="vector-effect: non-scaling-stroke; stroke-width: 2px; stroke: rgb(255, 4, 0); stroke-opacity: 1; fill: rgb(255, 4, 0); fill-opacity: 1; opacity: 1;"/><path class="box" d="M543.5,94.64H551.75M543.5,95.64H551.75V83.72H543.5ZM547.63,95.64V112.9M547.63,83.72V68.93" style="vector-effect: non-scaling-stroke; stroke-width: 2px; stroke: rgb(255, 4, 0); stroke-opacity: 1; fill: rgb(255, 4, 0); fill-opacity: 1; opacity: 1;"/><path class="box" d="M594.05,102.81H602.3M594.05,113.31H602.3V101.81H594.05ZM598.18,113.31V117.01M598.18,101.81V75.09" style="vector-effect: non-scaling-stroke; stroke-width: 2px; stroke: rgb(39, 204, 2); stroke-opacity: 1; fill: rgb(39, 204, 2); fill-opacity: 1; opacity: 1;"/><path class="box" d="M610.9,139.03H619.15M610.9,140.03H619.15V89.07H610.9ZM615.03,140.03V157.29M615.03,89.07V87.83" style="vector-effect: non-scaling-stroke; stroke-width: 2px; stroke: rgb(255, 4, 0); stroke-opacity: 1; fill: rgb(255, 4, 0); fill-opacity: 1; opacity: 1;"/><path class="box" d="M627.75,136.56H636M627.75,137.56H636V126.87H627.75ZM631.88,137.56V154M631.88,126.87V122.77" style="vector-effect: non-scaling-stroke; stroke-width: 2px; stroke: rgb(255, 4, 0); stroke-opacity: 1; fill: rgb(255, 4, 0); fill-opacity: 1; opacity: 1;"/><path class="box" d="M644.6,130.34H652.85M644.6,133.45H652.85V129.34H644.6ZM648.73,133.45V140.03M648.73,129.34V106.74" style="vector-effect: non-scaling-stroke; stroke-width: 2px; stroke: rgb(39, 204, 2); stroke-opacity: 1; fill: rgb(39, 204, 2); fill-opacity: 1; opacity: 1;"/><path class="box" d="M661.45,118.89H669.7M661.45,119.89H669.7V114.96H661.45ZM665.58,119.89V136.74M665.58,114.96V110.03" style="vector-effect: non-scaling-stroke; stroke-width: 2px; stroke: rgb(255, 4, 0); stroke-opacity: 1; fill: rgb(255, 4, 0); fill-opacity: 1; opacity: 1;"/></g></g></g><g class="overplot"/><path class="xlines-above crisp" d="M0,0" style="fill: none;"/><path class="ylines-above crisp" d="M0,0" style="fill: none;"/><g class="overlines-above"/><g class="xaxislayer-above"><g class="xtick"><text text-anchor="middle" x="0" y="476" transform="translate(130.53,0)" style="font-family: 'Open Sans', verdana, arial, sans-serif; font-size: 12px; fill: rgb(42, 63, 95); fill-opacity: 1; white-space: pre; opacity: 1;"><tspan class="line" dy="0em" x="0" y="476">Feb 27</tspan><tspan class="line" dy="1.3em" x="0" y="476">2022</tspan></text></g><g class="xtick"><text text-anchor="middle" x="0" y="476" style="font-family: 'Open Sans', verdana, arial, sans-serif; font-size: 12px; fill: rgb(42, 63, 95); fill-opacity: 1; white-space: pre; opacity: 1;" transform="translate(248.48,0)">Mar 6</text></g><g class="xtick"><text text-anchor="middle" x="0" y="476" style="font-family: 'Open Sans', verdana, arial, sans-serif; font-size: 12px; fill: rgb(42, 63, 95); fill-opacity: 1; white-space: pre; opacity: 1;" transform="translate(366.43,0)">Mar 13</text></g><g class="xtick"><text text-anchor="middle" x="0" y="476" style="font-family: 'Open Sans', verdana, arial, sans-serif; font-size: 12px; fill: rgb(42, 63, 95); fill-opacity: 1; white-space: pre; opacity: 1;" transform="translate(484.38,0)">Mar 20</text></g><g class="xtick"><text text-anchor="middle" x="0" y="476" style="font-family: 'Open Sans', verdana, arial, sans-serif; font-size: 12px; fill: rgb(42, 63, 95); fill-opacity: 1; white-space: pre; opacity: 1;" transform="translate(602.33,0)">Mar 27</text></g></g><g class="yaxislayer-above"><g class="ytick"><text text-anchor="end" x="20" y="4.199999999999999" transform="translate(0,360.78)" style="font-family: 'Open Sans', verdana, arial, sans-serif; font-size: 12px; fill: rgb(42, 63, 95); fill-opacity: 1; white-space: pre; opacity: 1;">65</text></g><g class="ytick"><text text-anchor="end" x="20" y="4.199999999999999" style="font-family: 'Open Sans', verdana, arial, sans-serif; font-size: 12px; fill: rgb(42, 63, 95); fill-opacity: 1; white-space: pre; opacity: 1;" transform="translate(0,258.03999999999996)">70</text></g><g class="ytick"><text text-anchor="end" x="20" y="4.199999999999999" style="font-family: 'Open Sans', verdana, arial, sans-serif; font-size: 12px; fill: rgb(42, 63, 95); fill-opacity: 1; white-space: pre; opacity: 1;" transform="translate(0,155.3)">75</text></g><g class="ytick"><text text-anchor="end" x="20" y="4.199999999999999" style="font-family: 'Open Sans', verdana, arial, sans-serif; font-size: 12px; fill: rgb(42, 63, 95); fill-opacity: 1; white-space: pre; opacity: 1;" transform="translate(0,52.56)">80</text></g></g><g class="overaxes-above"/></g></g><g class="polarlayer"/><g class="smithlayer"/><g class="ternarylayer"/><g class="geolayer"/><g class="funnelarealayer"/><g class="pielayer"/><g class="iciclelayer"/><g class="treemaplayer"/><g class="sunburstlayer"/><g class="glimages"/><defs id="topdefs-e516df"><g class="clips"/></defs><g class="layer-above"><g class="imagelayer"/><g class="shapelayer"/></g><g class="infolayer"><g class="g-gtitle"/><g class="g-xtitle"/><g class="g-ytitle"/></g></svg>