<svg class="main-svg" xmlns="http://www.w3.org/2000/svg" xmlns:xlink="http://www.w3.org/1999/xlink" width="700" height="500" style="" viewBox="0 0 700 500"><rect x="0" y="0" width="700" height="500" style="fill: rgb(252, 252, 252); fill-opacity: 1;"/><defs id="defs-c83fca"><g class="clips"><clipPath id="clipc83fcaxyplot" class="plotclip"><rect width="674" height="458"/></clipPath><clipPath class="axesclip" id="clipc83fcax"><rect x="21" y="0" width="674" height="500"/></clipPath><clipPath class="axesclip" id="clipc83fcay"><rect x="0" y="5" width="700" height="458"/></clipPath><clipPath class="axesclip" id="clipc83fcaxy"><rect x="21" y="5" width="674" height="458"/></clipPath></g><g class="gradients"/><g class="patterns"/></defs><g class="bglayer"><rect class="bg" x="21" y="5" width="674" height="458" style="fill: rgb(229, 236, 246); fill-opacity: 1; stroke-width: 0;"/></g><g class="layer-below"><g class="imagelayer"/><g class="shapelayer"/></g><g class="cartesianlayer"><g class="subplot xy"><g class="layer-subplot"><g class="shapelayer"/><g class="imagelayer"/></g><g class="minor-gridlayer"><g class="x"/><g class="y"/></g><g class="gridlayer"><g class="x"><path class="xgrid crisp" transform="translate(74.61,0)" d="M0,5v458" style="stroke: rgb(255, 255, 255); stroke-opacity: 1; stroke-width: 1px;"/><path class="xgrid crisp" transform="translate(181.84,0)" d="M0,5v458" style="stroke: rgb(255, 255, 255); stroke-opacity: 1; stroke-width: 1px;"/><path class="xgrid crisp" transform="translate(289.07,0)" d="M0,5v458" style="stroke: rgb(255, 255, 255); stroke-opacity: 1; stroke-width: 1px;"/><path class="xgrid crisp" transform="translate(396.3,0)" d="M0,5v458" style="stroke: rgb(255, 255, 255); stroke-opacity: 1; stroke-width: 1px;"/><path class="xgrid crisp" transform="translate(503.52,0)" d="M0,5v458" style="stroke: rgb(255, 255, 255); stroke-opacity: 1; stroke-width: 1px;"/><path class="xgrid crisp" transform="translate(610.75,0)" d="M0,5v458" style="stroke: rgb(255, 255, 255); stroke-opacity: 1; stroke-width: 1px;"/></g><g class="y"><path class="ygrid crisp" transform="translate(0,416.27)" d="M21,0h674" style="stroke: rgb(255, 255, 255); stroke-opacity: 1; stroke-width: 1px;"/><path class="ygrid crisp" transform="translate(0,366.09)" d="M21,0h674" style="stroke: rgb(255, 255, 255); stroke-opacity: 1; stroke-width: 1px;"/><path class="ygrid crisp" transform="translate(0,315.91)" d="M21,0h674" style="stroke: rgb(255, 255, 255); stroke-opacity: 1; stroke-width: 1px;"/><path class="ygrid crisp" transform="translate(0,265.74)" d="M21,0h674" style="stroke: rgb(255, 255, 255); stroke-opacity: 1; stroke-width: 1px;"/><path class="ygrid crisp" transform="translate(0,215.56)" d="M21,0h674" style="stroke: rgb(255, 255, 255); stroke-opacity: 1; stroke-width: 1px;"/><path class="ygrid crisp" transform="translate(0,165.38)" d="M21,0h674" style="stroke: rgb(255, 255, 255); stroke-opacity: 1; stroke-width: 1px;"/><path class="ygrid crisp" transform="translate(0,115.21)" d="M21,0h674" style="stroke: rgb(255, 255, 255); stroke-opacity: 1; stroke-width: 1px;"/><path class="ygrid crisp" transform="translate(0,65.03)" d="M21,0h674" style="stroke: rgb(255, 255, 255); stroke-opacity: 1; stroke-width: 1px;"/><path class="ygrid crisp" transform="translate(0,14.85)" d="M21,0h674" style="stroke: rgb(255, 255, 255); stroke-opacity: 1; stroke-width: 1px;"/></g></g><g class="zerolinelayer"/><path class="xlines-below"/><path class="ylines-below"/><g class="overlines-below"/><g class="xaxislayer-below"/><g class="yaxislayer-below"/><g class="overaxes-below"/><g class="plot" transform="translate(21,5)" clip-path="url(#clipc83fcaxyplot)"><g class="boxlayer mlayer"><g class="trace boxes" style="opacity: 1;"><path class="box" d="M3.91,337H11.41M3.91,340.02H11.41V336H3.91ZM7.66,340.02V382.67M7.66,336V328.98" style="vector-effect: non-scaling-stroke; stroke-width: 2px; stroke: rgb(36, 181, 36); stroke-opacity: 1; fill: rgb(36, 181, 36); fill-opacity: 1; opacity: 1;"/><path class="box" d="M19.22,327.47H26.73M19.22,328.47H26.73V309.41H19.22ZM22.98,328.47V341.02M22.98,309.41V293.35" style="vector-effect: non-scaling-stroke; stroke-width: 2px; stroke: rgb(235, 31, 5); stroke-opacity: 1; fill: rgb(235, 31, 5); fill-opacity: 1; opacity: 1;"/><path class="box" d="M65.18,308.4H72.68M65.18,328.47H72.68V307.4H65.18ZM68.93,328.47V335.5M68.93,307.4V285.82" style="vector-effect: non-scaling-stroke; stroke-width: 2px; stroke: rgb(36, 181, 36); stroke-opacity: 1; fill: rgb(36, 181, 36); fill-opacity: 1; opacity: 1;"/><path class="box" d="M80.5,368.12H88M80.5,369.12H88V336H80.5ZM84.25,369.12V387.18M84.25,336V336" style="vector-effect: non-scaling-stroke; stroke-width: 2px; stroke: rgb(235, 31, 5); stroke-opacity: 1; fill: rgb(235, 31, 5); fill-opacity: 1; opacity: 1;"/><path class="box" d="M95.82,400.23H103.32M95.82,401.23H103.32V361.09H95.82ZM99.57,401.23V406.25M99.57,361.09V356.07" style="vector-effect: non-scaling-stroke; stroke-width: 2px; stroke: rgb(235, 31, 5); stroke-opacity: 1; fill: rgb(235, 31, 5); fill-opacity: 1; opacity: 1;"/><path class="box" d="M111.13,387.18H118.64M111.13,398.72H118.64V386.18H111.13ZM114.89,398.72V414.28M114.89,386.18V378.65" style="vector-effect: non-scaling-stroke; stroke-width: 2px; stroke: rgb(36, 181, 36); stroke-opacity: 1; fill: rgb(36, 181, 36); fill-opacity: 1; opacity: 1;"/><path class="box" d="M126.45,403.74H133.96M126.45,404.74H133.96V393.7H126.45ZM130.2,404.74V412.52M130.2,393.7V393.7" style="vector-effect: non-scaling-stroke; stroke-width: 2px; stroke: rgb(235, 31, 5); stroke-opacity: 1; fill: rgb(235, 31, 5); fill-opacity: 1; opacity: 1;"/><path class="box" d="M172.41,403.24H179.91M172.41,404.24H179.91V395.21H172.41ZM176.16,404.24V435.1M176.16,395.21V394.21" style="vector-effect: non-scaling-stroke; stroke-width: 2px; stroke: rgb(235, 31, 5); stroke-opacity: 1; fill: rgb(235, 31, 5); fill-opacity: 1; opacity: 1;"/><path class="box" d="M187.72,380.65H195.23M187.72,397.72H195.23V379.65H187.72ZM191.48,397.72V414.78M191.48,379.65V376.64" style="vector-effect: non-scaling-stroke; stroke-width: 2px; stroke: rgb(36, 181, 36); stroke-opacity: 1; fill: rgb(36, 181, 36); fill-opacity: 1; opacity: 1;"/><path class="box" d="M203.04,329.98H210.55M203.04,374.64H210.55V328.98H203.04ZM206.8,374.64V385.17M206.8,328.98V327.47" style="vector-effect: non-scaling-stroke; stroke-width: 2px; stroke: rgb(36, 181, 36); stroke-opacity: 1; fill: rgb(36, 181, 36); fill-opacity: 1; opacity: 1;"/><path class="box" d="M218.36,272.27H225.87M218.36,318.94H225.87V271.27H218.36ZM222.11,318.94V327.97M222.11,271.27V271.27" style="vector-effect: non-scaling-stroke; stroke-width: 2px; stroke: rgb(36, 181, 36); stroke-opacity: 1; fill: rgb(36, 181, 36); fill-opacity: 1; opacity: 1;"/><path class="box" d="M233.68,273.28H241.18M233.68,285.82H241.18V272.28H233.68ZM237.43,285.82V304.89M237.43,272.28V253.21" style="vector-effect: non-scaling-stroke; stroke-width: 2px; stroke: rgb(36, 181, 36); stroke-opacity: 1; fill: rgb(36, 181, 36); fill-opacity: 1; opacity: 1;"/><path class="box" d="M279.63,286.83H287.14M279.63,287.83H287.14V263.75H279.63ZM283.39,287.83V305.9M283.39,263.75V263.75" style="vector-effect: non-scaling-stroke; stroke-width: 2px; stroke: rgb(235, 31, 5); stroke-opacity: 1; fill: rgb(235, 31, 5); fill-opacity: 1; opacity: 1;"/><path class="box" d="M310.27,210.56H317.78M310.27,263.75H317.78V209.56H310.27ZM314.02,263.75V273.28M314.02,209.56V196.01" style="vector-effect: non-scaling-stroke; stroke-width: 2px; stroke: rgb(36, 181, 36); stroke-opacity: 1; fill: rgb(36, 181, 36); fill-opacity: 1; opacity: 1;"/><path class="box" d="M325.59,162.39H333.09M325.59,223.1H333.09V161.39H325.59ZM329.34,223.1V240.67M329.34,161.39V161.39" style="vector-effect: non-scaling-stroke; stroke-width: 2px; stroke: rgb(36, 181, 36); stroke-opacity: 1; fill: rgb(36, 181, 36); fill-opacity: 1; opacity: 1;"/><path class="box" d="M340.91,86.12H348.41M340.91,139.81H348.41V85.12H340.91ZM344.66,139.81V139.81M344.66,85.12V85.12" style="vector-effect: non-scaling-stroke; stroke-width: 2px; stroke: rgb(36, 181, 36); stroke-opacity: 1; fill: rgb(36, 181, 36); fill-opacity: 1; opacity: 1;"/><path class="box" d="M386.86,146.84H394.37M386.86,147.84H394.37V73.58H386.86ZM390.61,147.84V177.95M390.61,73.58V69.06" style="vector-effect: non-scaling-stroke; stroke-width: 2px; stroke: rgb(235, 31, 5); stroke-opacity: 1; fill: rgb(235, 31, 5); fill-opacity: 1; opacity: 1;"/><path class="box" d="M402.18,110.2H409.68M402.18,150.35H409.68V109.2H402.18ZM405.93,150.35V170.42M405.93,109.2V102.68" style="vector-effect: non-scaling-stroke; stroke-width: 2px; stroke: rgb(36, 181, 36); stroke-opacity: 1; fill: rgb(36, 181, 36); fill-opacity: 1; opacity: 1;"/><path class="box" d="M417.5,134.3H425M417.5,135.3H425V110.21H417.5ZM421.25,135.3V138.81M421.25,110.21V98.16" style="vector-effect: non-scaling-stroke; stroke-width: 2px; stroke: rgb(235, 31, 5); stroke-opacity: 1; fill: rgb(235, 31, 5); fill-opacity: 1; opacity: 1;"/><path class="box" d="M432.82,96.15H440.32M432.82,147.84H440.32V95.15H432.82ZM436.57,147.84V174.43M436.57,95.15V88.13" style="vector-effect: non-scaling-stroke; stroke-width: 2px; stroke: rgb(36, 181, 36); stroke-opacity: 1; fill: rgb(36, 181, 36); fill-opacity: 1; opacity: 1;"/><path class="box" d="M494.09,75.08H501.59M494.09,87.63H501.59V74.08H494.09ZM497.84,87.63V94.65M497.84,74.08V27.92" style="vector-effect: non-scaling-stroke; stroke-width: 2px; stroke: rgb(36, 181, 36); stroke-opacity: 1; fill: rgb(36, 181, 36); fill-opacity: 1; opacity: 1;"/><path class="box" d="M509.41,38.45H516.91M509.41,65.55H516.91V37.45H509.41ZM513.16,65.55V90.64M513.16,37.45V22.9" style="vector-effect: non-scaling-stroke; stroke-width: 2px; stroke: rgb(36, 181, 36); stroke-opacity: 1; fill: rgb(36, 181, 36); fill-opacity: 1; opacity: 1;"/><path class="box" d="M524.72,56.52H532.23M524.72,57.52H532.23V55.01H524.72ZM528.48,57.52V59.53M528.48,55.01V35.95" style="vector-effect: non-scaling-stroke; stroke-width: 2px; stroke: rgb(235, 31, 5); stroke-opacity: 1; fill: rgb(235, 31, 5); fill-opacity: 1; opacity: 1;"/><path class="box" d="M540.04,56.52H547.55M540.04,57.52H547.55V52.5H540.04ZM543.8,57.52V82.61M543.8,52.5V31.43" style="vector-effect: non-scaling-stroke; stroke-width: 2px; stroke: rgb(235, 31, 5); stroke-opacity: 1; fill: rgb(235, 31, 5); fill-opacity: 1; opacity: 1;"/><path class="box" d="M555.36,90.14H562.87M555.36,91.14H562.87V57.52H555.36ZM559.11,91.14V106.69M559.11,57.52V44.98" style="vector-effect: non-scaling-stroke; stroke-width: 2px; stroke: rgb(235, 31, 5); stroke-opacity: 1; fill: rgb(235, 31, 5); fill-opacity: 1; opacity: 1;"/><path class="box" d="M601.32,121.75H608.82M601.32,122.75H608.82V90.64H601.32ZM605.07,122.75V129.27M605.07,90.64V77.09" style="vector-effect: non-scaling-stroke; stroke-width: 2px; stroke: rgb(235, 31, 5); stroke-opacity: 1; fill: rgb(235, 31, 5); fill-opacity: 1; opacity: 1;"/><path class="box" d="M616.63,57.52H624.14M616.63,102.68H624.14V56.52H616.63ZM620.39,102.68V103.68M620.39,56.52V44.98" style="vector-effect: non-scaling-stroke; stroke-width: 2px; stroke: rgb(36, 181, 36); stroke-opacity: 1; fill: rgb(36, 181, 36); fill-opacity: 1; opacity: 1;"/><path class="box" d="M631.95,69.07H639.46M631.95,70.07H639.46V43.47H631.95ZM635.7,70.07V79.6M635.7,43.47V24.91" style="vector-effect: non-scaling-stroke; stroke-width: 2px; stroke: rgb(235, 31, 5); stroke-opacity: 1; fill: rgb(235, 31, 5); fill-opacity: 1; opacity: 1;"/><path class="box" d="M647.27,58.03H654.78M647.27,59.03H654.78V55.51H647.27ZM651.02,59.03V99.67M651.02,55.51V54.51" style="vector-effect: non-scaling-stroke; stroke-width: 2px; stroke: rgb(235, 31, 5); stroke-opacity: 1; fill: rgb(235, 31, 5); fill-opacity: 1; opacity: 1;"/><path class="box" d="M662.59,54.51H670.09M662.59,60.03H670.09V53.51H662.59ZM666.34,60.03V81.61M666.34,53.51V49.49" style="vector-effect: non-scaling-stroke; stroke-width: 2px; stroke: rgb(36, 181, 36); stroke-opacity: 1; fill: rgb(36, 181, 36); fill-opacity: 1; opacity: 1;"/></g></g></g><g class="overplot"/><path class="xlines-above crisp" d="M0,0" style="fill: none;"/><path class="ylines-above crisp" d="M0,0" style="fill: none;"/><g class="overlines-above"/><g class="xaxislayer-above"><g class="xtick"><text text-anchor="middle" x="0" y="476" transform="translate(74.61,0)" style="font-family: 'Open Sans', verdana, arial, sans-serif; font-size: 12px; fill: rgb(42, 63, 95); fill-opacity: 1; white-space: pre; opacity: 1;"><tspan class="line" dy="0em" x="0" y="476">Oct 16</tspan><tspan class="line" dy="1.3em" x="0" y="476">2022</tspan></text></g><g class="xtick"><text text-anchor="middle" x="0" y="476" style="font-family: 'Open Sans', verdana, arial, sans-serif; font-size: 12px; fill: rgb(42, 63, 95); fill-opacity: 1; white-space: pre; opacity: 1;" transform="translate(181.84,0)">Oct 23</text></g><g class="xtick"><text text-anchor="middle" x="0" y="476" style="font-family: 'Open Sans', verdana, arial, sans-serif; font-size: 12px; fill: rgb(42, 63, 95); fill-opacity: 1; white-space: pre; opacity: 1;" transform="translate(289.07,0)">Oct 30</text></g><g class="xtick"><text text-anchor="middle" x="0" y="476" style="font-family: 'Open Sans', verdana, arial, sans-serif; font-size: 12px; fill: rgb(42, 63, 95); fill-opacity: 1; white-space: pre; opacity: 1;" transform="translate(396.3,0)">Nov 6</text></g><g class="xtick"><text text-anchor="middle" x="0" y="476" style="font-family: 'Open Sans', verdana, arial, sans-serif; font-size: 12px; fill: rgb(42, 63, 95); fill-opacity: 1; white-space: pre; opacity: 1;" transform="translate(503.52,0)">Nov 13</text></g><g class="xtick"><text text-anchor="middle" x="0" y="476" style="font-family: 'Open Sans', verdana, arial, sans-serif; font-size: 12px; fill: rgb(42, 63, 95); fill-opacity: 1; white-space: pre; opacity: 1;" transform="translate(610.75,0)">Nov 20</text></g></g><g class="yaxislayer-above"><g class="ytick"><text text-anchor="end" x="20" y="4.199999999999999" transform="translate(0,416.27)" style="font-family: 'Open Sans', verdana, arial, sans-serif; font-size: 12px; fill: rgb(42, 63, 95); fill-opacity: 1; white-space: pre; opacity: 1;">50</text></g><g class="ytick"><text text-anchor="end" x="20" y="4.199999999999999" style="font-family: 'Open Sans', verdana, arial, sans-serif; font-size: 12px; fill: rgb(42, 63, 95); fill-opacity: 1; white-space: pre; opacity: 1;" transform="translate(0,366.09)">52</text></g><g class="ytick"><text text-anchor="end" x="20" y="4.199999999999999" style="font-family: 'Open Sans', verdana, arial, sans-serif; font-size: 12px; fill: rgb(42, 63, 95); fill-opacity: 1; white-space: pre; opacity: 1;" transform="translate(0,315.91)">54</text></g><g class="ytick"><text text-anchor="end" x="20" y="4.199999999999999" style="font-family: 'Open Sans', verdana, arial, sans-serif; font-size: 12px; fill: rgb(42, 63, 95); fill-opacity: 1; white-space: pre; opacity: 1;" transform="translate(0,265.74)">56</text></g><g class="ytick"><text text-anchor="end" x="20" y="4.199999999999999" style="font-family: 'Open Sans', verdana, arial, sans-serif; font-size: 12px; fill: rgb(42, 63, 95); fill-opacity: 1; white-space: pre; opacity: 1;" transform="translate(0,215.56)">58</text></g><g class="ytick"><text text-anchor="end" x="20" y="4.199999999999999" style="font-family: 'Open Sans', verdana, arial, sans-serif; font-size: 12px; fill: rgb(42, 63, 95); fill-opacity: 1; white-space: pre; opacity: 1;" transform="translate(0,165.38)">60</text></g><g class="ytick"><text text-anchor="end" x="20" y="4.199999999999999" style="font-family: 'Open Sans', verdana, arial, sans-serif; font-size: 12px; fill: rgb(42, 63, 95); fill-opacity: 1; white-space: pre; opacity: 1;" transform="translate(0,115.21)">62</text></g><g class="ytick"><text text-anchor="end" x="20" y="4.199999999999999" style="font-family: 'Open Sans', verdana, arial, sans-serif; font-size: 12px; fill: rgb(42, 63, 95); fill-opacity: 1; white-space: pre; opacity: 1;" transform="translate(0,65.03)">64</text></g><g class="ytick"><text text-anchor="end" x="20" y="4.199999999999999" style="font-family: 'Open Sans', verdana, arial, sans-serif; font-size: 12px; fill: rgb(42, 63, 95); fill-opacity: 1; white-space: pre; opacity: 1;" transform="translate(0,14.85)">66</text></g></g><g class="overaxes-above"/></g></g><g class="polarlayer"/><g class="smithlayer"/><g class="ternarylayer"/><g class="geolayer"/><g class="funnelarealayer"/><g class="pielayer"/><g class="iciclelayer"/><g class="treemaplayer"/><g class="sunburstlayer"/><g class="glimages"/><defs id="topdefs-c83fca"><g class="clips"/></defs><g class="layer-above"><g class="imagelayer"/><g class="shapelayer"/></g><g class="infolayer"><g class="g-gtitle"/><g class="g-xtitle"/><g class="g-ytitle"/></g></svg>