<svg class="main-svg" xmlns="http://www.w3.org/2000/svg" xmlns:xlink="http://www.w3.org/1999/xlink" width="700" height="500" style="" viewBox="0 0 700 500"><rect x="0" y="0" width="700" height="500" style="fill: rgb(252, 252, 252); fill-opacity: 1;"/><defs id="defs-c783bd"><g class="clips"><clipPath id="clipc783bdxyplot" class="plotclip"><rect width="662" height="458"/></clipPath><clipPath class="axesclip" id="clipc783bdx"><rect x="33" y="0" width="662" height="500"/></clipPath><clipPath class="axesclip" id="clipc783bdy"><rect x="0" y="5" width="700" height="458"/></clipPath><clipPath class="axesclip" id="clipc783bdxy"><rect x="33" y="5" width="662" height="458"/></clipPath></g><g class="gradients"/><g class="patterns"/></defs><g class="bglayer"><rect class="bg" x="33" y="5" width="662" height="458" style="fill: rgb(229, 236, 246); fill-opacity: 1; stroke-width: 0;"/></g><g class="layer-below"><g class="imagelayer"/><g class="shapelayer"/></g><g class="cartesianlayer"><g class="subplot xy"><g class="layer-subplot"><g class="shapelayer"/><g class="imagelayer"/></g><g class="minor-gridlayer"><g class="x"/><g class="y"/></g><g class="gridlayer"><g class="x"><path class="xgrid crisp" transform="translate(140.57999999999998,0)" d="M0,5v458" style="stroke: rgb(255, 255, 255); stroke-opacity: 1; stroke-width: 1px;"/><path class="xgrid crisp" transform="translate(256.41999999999996,0)" d="M0,5v458" style="stroke: rgb(255, 255, 255); stroke-opacity: 1; stroke-width: 1px;"/><path class="xgrid crisp" transform="translate(372.28,0)" d="M0,5v458" style="stroke: rgb(255, 255, 255); stroke-opacity: 1; stroke-width: 1px;"/><path class="xgrid crisp" transform="translate(488.13,0)" d="M0,5v458" style="stroke: rgb(255, 255, 255); stroke-opacity: 1; stroke-width: 1px;"/><path class="xgrid crisp" transform="translate(603.98,0)" d="M0,5v458" style="stroke: rgb(255, 255, 255); stroke-opacity: 1; stroke-width: 1px;"/></g><g class="y"><path class="ygrid crisp" transform="translate(0,435.33)" d="M33,0h662" style="stroke: rgb(255, 255, 255); stroke-opacity: 1; stroke-width: 1px;"/><path class="ygrid crisp" transform="translate(0,375.77)" d="M33,0h662" style="stroke: rgb(255, 255, 255); stroke-opacity: 1; stroke-width: 1px;"/><path class="ygrid crisp" transform="translate(0,316.2)" d="M33,0h662" style="stroke: rgb(255, 255, 255); stroke-opacity: 1; stroke-width: 1px;"/><path class="ygrid crisp" transform="translate(0,256.64)" d="M33,0h662" style="stroke: rgb(255, 255, 255); stroke-opacity: 1; stroke-width: 1px;"/><path class="ygrid crisp" transform="translate(0,197.07)" d="M33,0h662" style="stroke: rgb(255, 255, 255); stroke-opacity: 1; stroke-width: 1px;"/><path class="ygrid crisp" transform="translate(0,137.5)" d="M33,0h662" style="stroke: rgb(255, 255, 255); stroke-opacity: 1; stroke-width: 1px;"/><path class="ygrid crisp" transform="translate(0,77.94)" d="M33,0h662" style="stroke: rgb(255, 255, 255); stroke-opacity: 1; stroke-width: 1px;"/><path class="ygrid crisp" transform="translate(0,18.369999999999997)" d="M33,0h662" style="stroke: rgb(255, 255, 255); stroke-opacity: 1; stroke-width: 1px;"/></g></g><g class="zerolinelayer"/><path class="xlines-below"/><path class="ylines-below"/><g class="overlines-below"/><g class="xaxislayer-below"/><g class="yaxislayer-below"/><g class="overaxes-below"/><g class="plot" transform="translate(33,5)" clip-path="url(#clipc783bdxyplot)"><g class="boxlayer mlayer"><g class="trace boxes" style="opacity: 1;"><path class="box" d="M4.22,260.17H12.33M4.22,261.17H12.33V184.92H4.22ZM8.28,261.17V263.55M8.28,184.92V151.56" style="vector-effect: non-scaling-stroke; stroke-width: 2px; stroke: rgb(255, 4, 0); stroke-opacity: 1; fill: rgb(255, 4, 0); fill-opacity: 1; opacity: 1;"/><path class="box" d="M20.77,216.9H28.88M20.77,311.2H28.88V215.9H20.77ZM24.83,311.2V311.2M24.83,215.9V215.9" style="vector-effect: non-scaling-stroke; stroke-width: 2px; stroke: rgb(39, 204, 2); stroke-opacity: 1; fill: rgb(39, 204, 2); fill-opacity: 1; opacity: 1;"/><path class="box" d="M37.32,238.72H45.43M37.32,239.72H45.43V192.07H37.32ZM41.38,239.72V239.72M41.38,192.07V153.95" style="vector-effect: non-scaling-stroke; stroke-width: 2px; stroke: rgb(255, 4, 0); stroke-opacity: 1; fill: rgb(255, 4, 0); fill-opacity: 1; opacity: 1;"/><path class="box" d="M53.87,355.47H61.98M53.87,356.47H61.98V320.73H53.87ZM57.92,356.47V435.1M57.92,320.73V299.29" style="vector-effect: non-scaling-stroke; stroke-width: 2px; stroke: rgb(255, 4, 0); stroke-opacity: 1; fill: rgb(255, 4, 0); fill-opacity: 1; opacity: 1;"/><path class="box" d="M70.42,257.4H78.53M70.42,356.47H78.53V256.4H70.42ZM74.48,356.47V356.47M74.48,256.4V256.4" style="vector-effect: non-scaling-stroke; stroke-width: 2px; stroke: rgb(39, 204, 2); stroke-opacity: 1; fill: rgb(39, 204, 2); fill-opacity: 1; opacity: 1;"/><path class="box" d="M120.07,169.24H128.18M120.07,251.64H128.18V168.24H120.07ZM124.13,251.64V284.99M124.13,168.24V125.35" style="vector-effect: non-scaling-stroke; stroke-width: 2px; stroke: rgb(39, 204, 2); stroke-opacity: 1; fill: rgb(39, 204, 2); fill-opacity: 1; opacity: 1;"/><path class="box" d="M136.62,191.07H144.73M136.62,192.07H144.73V122.97H136.62ZM140.67,192.07V208.75M140.67,122.97V115.82" style="vector-effect: non-scaling-stroke; stroke-width: 2px; stroke: rgb(255, 4, 0); stroke-opacity: 1; fill: rgb(255, 4, 0); fill-opacity: 1; opacity: 1;"/><path class="box" d="M153.17,78.7H161.28M153.17,192.07H161.28V77.7H153.17ZM157.23,192.07V218.28M157.23,77.7V77.7" style="vector-effect: non-scaling-stroke; stroke-width: 2px; stroke: rgb(39, 204, 2); stroke-opacity: 1; fill: rgb(39, 204, 2); fill-opacity: 1; opacity: 1;"/><path class="box" d="M169.72,167.24H177.83M169.72,168.24H177.83V27.67H169.72ZM173.78,168.24V168.24M173.78,27.67V22.9" style="vector-effect: non-scaling-stroke; stroke-width: 2px; stroke: rgb(255, 4, 0); stroke-opacity: 1; fill: rgb(255, 4, 0); fill-opacity: 1; opacity: 1;"/><path class="box" d="M186.27,202.98H194.38M186.27,203.98H194.38V177.77H186.27ZM190.33,203.98V206.36M190.33,177.77V144.42" style="vector-effect: non-scaling-stroke; stroke-width: 2px; stroke: rgb(255, 4, 0); stroke-opacity: 1; fill: rgb(255, 4, 0); fill-opacity: 1; opacity: 1;"/><path class="box" d="M235.92,159.71H244.03M235.92,201.6H244.03V158.71H235.92ZM239.98,201.6V249.25M239.98,158.71V125.35" style="vector-effect: non-scaling-stroke; stroke-width: 2px; stroke: rgb(39, 204, 2); stroke-opacity: 1; fill: rgb(39, 204, 2); fill-opacity: 1; opacity: 1;"/><path class="box" d="M252.47,212.51H260.58M252.47,213.51H260.58V203.98H252.47ZM256.53,213.51V223.04M256.53,203.98V161.09" style="vector-effect: non-scaling-stroke; stroke-width: 2px; stroke: rgb(255, 4, 0); stroke-opacity: 1; fill: rgb(255, 4, 0); fill-opacity: 1; opacity: 1;"/><path class="box" d="M269.02,164.48H277.13M269.02,199.22H277.13V163.48H269.02ZM273.08,199.22V208.75M273.08,163.48V163.48" style="vector-effect: non-scaling-stroke; stroke-width: 2px; stroke: rgb(39, 204, 2); stroke-opacity: 1; fill: rgb(39, 204, 2); fill-opacity: 1; opacity: 1;"/><path class="box" d="M285.57,147.8H293.68M285.57,161.09H293.68V146.8H285.57ZM289.63,161.09V187.3M289.63,146.8V146.8" style="vector-effect: non-scaling-stroke; stroke-width: 2px; stroke: rgb(39, 204, 2); stroke-opacity: 1; fill: rgb(39, 204, 2); fill-opacity: 1; opacity: 1;"/><path class="box" d="M302.12,176.39H310.23M302.12,184.92H310.23V175.39H302.12ZM306.17,184.92V184.92M306.17,175.39V146.8" style="vector-effect: non-scaling-stroke; stroke-width: 2px; stroke: rgb(39, 204, 2); stroke-opacity: 1; fill: rgb(39, 204, 2); fill-opacity: 1; opacity: 1;"/><path class="box" d="M351.77,188.69H359.88M351.77,189.69H359.88V175.39H351.77ZM355.83,189.69V203.98M355.83,175.39V161.09" style="vector-effect: non-scaling-stroke; stroke-width: 2px; stroke: rgb(255, 4, 0); stroke-opacity: 1; fill: rgb(255, 4, 0); fill-opacity: 1; opacity: 1;"/><path class="box" d="M368.32,193.45H376.43M368.32,194.45H376.43V189.69H368.32ZM372.38,194.45V213.51M372.38,189.69V163.48" style="vector-effect: non-scaling-stroke; stroke-width: 2px; stroke: rgb(255, 4, 0); stroke-opacity: 1; fill: rgb(255, 4, 0); fill-opacity: 1; opacity: 1;"/><path class="box" d="M384.87,169.24H392.98M384.87,187.3H392.98V168.24H384.87ZM388.92,187.3V194.45M388.92,168.24V142.03" style="vector-effect: non-scaling-stroke; stroke-width: 2px; stroke: rgb(39, 204, 2); stroke-opacity: 1; fill: rgb(39, 204, 2); fill-opacity: 1; opacity: 1;"/><path class="box" d="M401.42,109.68H409.53M401.42,144.42H409.53V108.68H401.42ZM405.48,144.42V168.24M405.48,108.68V108.68" style="vector-effect: non-scaling-stroke; stroke-width: 2px; stroke: rgb(39, 204, 2); stroke-opacity: 1; fill: rgb(39, 204, 2); fill-opacity: 1; opacity: 1;"/><path class="box" d="M417.97,150.56H426.08M417.97,151.56H426.08V111.06H417.97ZM422.03,151.56V168.24M422.03,111.06V94.38" style="vector-effect: non-scaling-stroke; stroke-width: 2px; stroke: rgb(255, 4, 0); stroke-opacity: 1; fill: rgb(255, 4, 0); fill-opacity: 1; opacity: 1;"/><path class="box" d="M467.62,112.06H475.73M467.62,151.56H475.73V111.06H467.62ZM471.67,151.56V151.56M471.67,111.06V101.53" style="vector-effect: non-scaling-stroke; stroke-width: 2px; stroke: rgb(39, 204, 2); stroke-opacity: 1; fill: rgb(39, 204, 2); fill-opacity: 1; opacity: 1;"/><path class="box" d="M484.17,141.03H492.28M484.17,142.03H492.28V99.15H484.17ZM488.23,142.03V149.18M488.23,99.15V89.61" style="vector-effect: non-scaling-stroke; stroke-width: 2px; stroke: rgb(255, 4, 0); stroke-opacity: 1; fill: rgb(255, 4, 0); fill-opacity: 1; opacity: 1;"/><path class="box" d="M500.72,83.47H508.83M500.72,127.74H508.83V82.47H500.72ZM504.78,127.74V142.03M504.78,82.47V68.17" style="vector-effect: non-scaling-stroke; stroke-width: 2px; stroke: rgb(39, 204, 2); stroke-opacity: 1; fill: rgb(39, 204, 2); fill-opacity: 1; opacity: 1;"/><path class="box" d="M517.27,54.87H525.38M517.27,72.94H525.38V53.87H517.27ZM521.33,72.94V106.29M521.33,53.87V49.11" style="vector-effect: non-scaling-stroke; stroke-width: 2px; stroke: rgb(39, 204, 2); stroke-opacity: 1; fill: rgb(39, 204, 2); fill-opacity: 1; opacity: 1;"/><path class="box" d="M533.82,107.68H541.93M533.82,108.68H541.93V37.2H533.82ZM537.88,108.68V118.21M537.88,37.2V37.2" style="vector-effect: non-scaling-stroke; stroke-width: 2px; stroke: rgb(255, 4, 0); stroke-opacity: 1; fill: rgb(255, 4, 0); fill-opacity: 1; opacity: 1;"/><path class="box" d="M583.47,138.65H591.58M583.47,139.65H591.58V96.76H583.47ZM587.53,139.65V142.03M587.53,96.76V80.08" style="vector-effect: non-scaling-stroke; stroke-width: 2px; stroke: rgb(255, 4, 0); stroke-opacity: 1; fill: rgb(255, 4, 0); fill-opacity: 1; opacity: 1;"/><path class="box" d="M600.02,126.74H608.13M600.02,127.74H608.13V120.59H600.02ZM604.08,127.74V165.86M604.08,120.59V113.44" style="vector-effect: non-scaling-stroke; stroke-width: 2px; stroke: rgb(255, 4, 0); stroke-opacity: 1; fill: rgb(255, 4, 0); fill-opacity: 1; opacity: 1;"/><path class="box" d="M616.57,133.88H624.68M616.57,134.88H624.68V127.74H616.57ZM620.63,134.88V144.42M620.63,127.74V127.74" style="vector-effect: non-scaling-stroke; stroke-width: 2px; stroke: rgb(255, 4, 0); stroke-opacity: 1; fill: rgb(255, 4, 0); fill-opacity: 1; opacity: 1;"/><path class="box" d="M633.12,145.8H641.23M633.12,146.8H641.23V144.42H633.12ZM637.17,146.8V161.09M637.17,144.42V118.21" style="vector-effect: non-scaling-stroke; stroke-width: 2px; stroke: rgb(255, 4, 0); stroke-opacity: 1; fill: rgb(255, 4, 0); fill-opacity: 1; opacity: 1;"/><path class="box" d="M649.67,162.48H657.78M649.67,163.48H657.78V130.12H649.67ZM653.73,163.48V163.48M653.73,130.12V130.12" style="vector-effect: non-scaling-stroke; stroke-width: 2px; stroke: rgb(255, 4, 0); stroke-opacity: 1; fill: rgb(255, 4, 0); fill-opacity: 1; opacity: 1;"/></g></g></g><g class="overplot"/><path class="xlines-above crisp" d="M0,0" style="fill: none;"/><path class="ylines-above crisp" d="M0,0" style="fill: none;"/><g class="overlines-above"/><g class="xaxislayer-above"><g class="xtick"><text text-anchor="middle" x="0" y="476" transform="translate(140.57999999999998,0)" style="font-family: 'Open Sans', verdana, arial, sans-serif; font-size: 12px; fill: rgb(42, 63, 95); fill-opacity: 1; white-space: pre; opacity: 1;"><tspan class="line" dy="0em" x="0" y="476">Feb 27</tspan><tspan class="line" dy="1.3em" x="0" y="476">2022</tspan></text></g><g class="xtick"><text text-anchor="middle" x="0" y="476" style="font-family: 'Open Sans', verdana, arial, sans-serif; font-size: 12px; fill: rgb(42, 63, 95); fill-opacity: 1; white-space: pre; opacity: 1;" transform="translate(256.41999999999996,0)">Mar 6</text></g><g class="xtick"><text text-anchor="middle" x="0" y="476" style="font-family: 'Open Sans', verdana, arial, sans-serif; font-size: 12px; fill: rgb(42, 63, 95); fill-opacity: 1; white-space: pre; opacity: 1;" transform="translate(372.28,0)">Mar 13</text></g><g class="xtick"><text text-anchor="middle" x="0" y="476" style="font-family: 'Open Sans', verdana, arial, sans-serif; font-size: 12px; fill: rgb(42, 63, 95); fill-opacity: 1; white-space: pre; opacity: 1;" transform="translate(488.13,0)">Mar 20</text></g><g class="xtick"><text text-anchor="middle" x="0" y="476" style="font-family: 'Open Sans', verdana, arial, sans-serif; font-size: 12px; fill: rgb(42, 63, 95); fill-opacity: 1; white-space: pre; opacity: 1;" transform="translate(603.98,0)">Mar 27</text></g></g><g class="yaxislayer-above"><g class="ytick"><text text-anchor="end" x="32" y="4.199999999999999" transform="translate(0,435.33)" style="font-family: 'Open Sans', verdana, arial, sans-serif; font-size: 12px; fill: rgb(42, 63, 95); fill-opacity: 1; white-space: pre; opacity: 1;">10</text></g><g class="ytick"><text text-anchor="end" x="32" y="4.199999999999999" style="font-family: 'Open Sans', verdana, arial, sans-serif; font-size: 12px; fill: rgb(42, 63, 95); fill-opacity: 1; white-space: pre; opacity: 1;" transform="translate(0,375.77)">10.5</text></g><g class="ytick"><text text-anchor="end" x="32" y="4.199999999999999" style="font-family: 'Open Sans', verdana, arial, sans-serif; font-size: 12px; fill: rgb(42, 63, 95); fill-opacity: 1; white-space: pre; opacity: 1;" transform="translate(0,316.2)">11</text></g><g class="ytick"><text text-anchor="end" x="32" y="4.199999999999999" style="font-family: 'Open Sans', verdana, arial, sans-serif; font-size: 12px; fill: rgb(42, 63, 95); fill-opacity: 1; white-space: pre; opacity: 1;" transform="translate(0,256.64)">11.5</text></g><g class="ytick"><text text-anchor="end" x="32" y="4.199999999999999" style="font-family: 'Open Sans', verdana, arial, sans-serif; font-size: 12px; fill: rgb(42, 63, 95); fill-opacity: 1; white-space: pre; opacity: 1;" transform="translate(0,197.07)">12</text></g><g class="ytick"><text text-anchor="end" x="32" y="4.199999999999999" style="font-family: 'Open Sans', verdana, arial, sans-serif; font-size: 12px; fill: rgb(42, 63, 95); fill-opacity: 1; white-space: pre; opacity: 1;" transform="translate(0,137.5)">12.5</text></g><g class="ytick"><text text-anchor="end" x="32" y="4.199999999999999" style="font-family: 'Open Sans', verdana, arial, sans-serif; font-size: 12px; fill: rgb(42, 63, 95); fill-opacity: 1; white-space: pre; opacity: 1;" transform="translate(0,77.94)">13</text></g><g class="ytick"><text text-anchor="end" x="32" y="4.199999999999999" style="font-family: 'Open Sans', verdana, arial, sans-serif; font-size: 12px; fill: rgb(42, 63, 95); fill-opacity: 1; white-space: pre; opacity: 1;" transform="translate(0,18.369999999999997)">13.5</text></g></g><g class="overaxes-above"/></g></g><g class="polarlayer"/><g class="smithlayer"/><g class="ternarylayer"/><g class="geolayer"/><g class="funnelarealayer"/><g class="pielayer"/><g class="iciclelayer"/><g class="treemaplayer"/><g class="sunburstlayer"/><g class="glimages"/><defs id="topdefs-c783bd"><g class="clips"/></defs><g class="layer-above"><g class="imagelayer"/><g class="shapelayer"/></g><g class="infolayer"><g class="g-gtitle"/><g class="g-xtitle"/><g class="g-ytitle"/></g></svg>