<svg width="45" height="46" viewBox="0 0 45 46" fill="none" xmlns="http://www.w3.org/2000/svg">
<path d="M37.9689 2.81334C36.85 2.81334 35.777 3.2578 34.9858 4.04896C34.1947 4.84012 33.7502 5.91315 33.7502 7.03202C33.7502 8.15088 34.1947 9.22392 34.9858 10.0151C35.777 10.8062 36.85 11.2507 37.9689 11.2507C39.0877 11.2507 40.1608 10.8062 40.9519 10.0151C41.7431 9.22392 42.1875 8.15088 42.1875 7.03202C42.1875 5.91315 41.7431 4.84012 40.9519 4.04896C40.1608 3.2578 39.0877 2.81334 37.9689 2.81334ZM30.9377 7.03202C30.9375 5.38232 31.5174 3.78508 32.5759 2.51975C33.6344 1.25441 35.1041 0.401555 36.7279 0.110392C38.3517 -0.180771 40.0262 0.1083 41.4584 0.927031C42.8906 1.74576 43.9893 3.04202 44.5623 4.589C45.1353 6.13599 45.146 7.8352 44.5927 9.38934C44.0395 10.9435 42.9573 12.2536 41.5356 13.0904C40.114 13.9273 38.4433 14.2376 36.8159 13.9671C35.1886 13.6966 33.7081 12.8625 32.6336 11.6107L13.7396 20.3855C14.1739 21.7621 14.1739 23.239 13.7396 24.6155L32.6336 33.3903C33.7694 32.0694 35.3552 31.2172 37.0835 30.9988C38.8118 30.7804 40.5597 31.2114 41.9884 32.2082C43.417 33.2051 44.4248 34.6969 44.8163 36.3944C45.2077 38.0919 44.9551 39.8743 44.1073 41.3962C43.2595 42.9181 41.8769 44.071 40.2275 44.6316C38.5781 45.1922 36.7793 45.1205 35.1797 44.4304C33.5801 43.7403 32.2937 42.4809 31.5697 40.8964C30.8458 39.3119 30.7358 37.515 31.2612 35.854L12.3671 27.0792C11.4318 28.1692 10.1851 28.9466 8.79467 29.3069C7.40427 29.6671 5.93689 29.5929 4.58993 29.0942C3.24297 28.5956 2.08105 27.6963 1.26046 26.5175C0.439879 25.3387 0 23.9368 0 22.5005C0 21.0642 0.439879 19.6623 1.26046 18.4835C2.08105 17.3047 3.24297 16.4055 4.58993 15.9068C5.93689 15.4081 7.40427 15.3339 8.79467 15.6941C10.1851 16.0544 11.4318 16.8318 12.3671 17.9218L31.2612 9.14698C31.0461 8.46262 30.937 7.74938 30.9377 7.03202ZM7.03188 18.2818C5.91302 18.2818 4.83998 18.7263 4.04882 19.5175C3.25767 20.3086 2.8132 21.3816 2.8132 22.5005C2.8132 23.6194 3.25767 24.6924 4.04882 25.4836C4.83998 26.2747 5.91302 26.7192 7.03188 26.7192C8.15074 26.7192 9.22378 26.2747 10.0149 25.4836C10.8061 24.6924 11.2506 23.6194 11.2506 22.5005C11.2506 21.3816 10.8061 20.3086 10.0149 19.5175C9.22378 18.7263 8.15074 18.2818 7.03188 18.2818ZM37.9689 33.7503C36.85 33.7503 35.777 34.1948 34.9858 34.986C34.1947 35.7771 33.7502 36.8501 33.7502 37.969C33.7502 39.0879 34.1947 40.1609 34.9858 40.9521C35.777 41.7432 36.85 42.1877 37.9689 42.1877C39.0877 42.1877 40.1608 41.7432 40.9519 40.9521C41.7431 40.1609 42.1875 39.0879 42.1875 37.969C42.1875 36.8501 41.7431 35.7771 40.9519 34.986C40.1608 34.1948 39.0877 33.7503 37.9689 33.7503Z" fill="#5370A9"/>
</svg>
