<svg width="66" height="53" viewBox="0 0 66 53" fill="none" xmlns="http://www.w3.org/2000/svg">
<path d="M59.2422 13.0984C59.2709 13.6685 59.2816 14.2457 59.2816 14.8158C59.2816 32.3765 45.662 52.6189 20.7577 52.6189C13.1067 52.6189 5.9938 50.4194 0 46.6468C3.54526 47.0675 7.14025 46.7985 10.5795 45.8553C14.0188 44.9121 17.2348 43.3131 20.0439 41.1499C17.2189 41.0975 14.4812 40.1803 12.2135 38.5265C9.94585 36.8727 8.26163 34.565 7.3963 31.9261C9.42674 32.2986 11.5164 32.2204 13.5121 31.6973C10.4474 31.0876 7.69187 29.4571 5.7124 27.0821C3.73292 24.7071 2.65128 21.7337 2.65076 18.6658V18.5004C4.53103 19.5266 6.63395 20.0973 8.78446 20.165C5.91444 18.2878 3.8828 15.4067 3.10421 12.1099C2.32563 8.81308 2.85879 5.34901 4.59489 2.42474C7.99457 6.52973 12.2364 9.88718 17.0448 12.279C21.8532 14.6708 27.1206 16.0435 32.505 16.3079C32.2721 15.3142 32.1553 14.2976 32.1571 13.2779C32.1571 11.5339 32.5072 9.80704 33.1876 8.19587C33.8679 6.58469 34.8651 5.12079 36.1222 3.88778C37.3793 2.65477 38.8717 1.6768 40.5141 1.00973C42.1564 0.342657 43.9167 -0.00044458 45.6942 1.76447e-05C47.5468 -0.00294642 49.3801 0.367561 51.0807 1.08856C52.7812 1.80955 54.3126 2.86566 55.5799 4.19137C58.6113 3.6026 61.5187 2.51255 64.1778 0.967794C63.1665 4.04428 61.0505 6.65558 58.2235 8.31586C60.9074 8.00368 63.5287 7.29908 66 6.22546C64.1845 8.89454 61.8956 11.2224 59.2422 13.0984Z" fill="white"/>
</svg>
