<svg width="51" height="51" viewBox="0 0 51 51" fill="none" xmlns="http://www.w3.org/2000/svg">
<path d="M14.875 17C14.875 14.1821 15.9944 11.4796 17.987 9.48699C19.9796 7.49442 22.6821 6.375 25.5 6.375C28.3179 6.375 31.0204 7.49442 33.013 9.48699C35.0056 11.4796 36.125 14.1821 36.125 17C36.125 19.8179 35.0056 22.5204 33.013 24.513C31.0204 26.5056 28.3179 27.625 25.5 27.625C22.6821 27.625 19.9796 26.5056 17.987 24.513C15.9944 22.5204 14.875 19.8179 14.875 17V17ZM25.5 23.375C27.1908 23.375 28.8123 22.7034 30.0078 21.5078C31.2034 20.3123 31.875 18.6908 31.875 17C31.875 15.3092 31.2034 13.6877 30.0078 12.4922C28.8123 11.2967 27.1908 10.625 25.5 10.625C23.8092 10.625 22.1877 11.2967 20.9922 12.4922C19.7966 13.6877 19.125 15.3092 19.125 17C19.125 18.6908 19.7966 20.3123 20.9922 21.5078C22.1877 22.7034 23.8092 23.375 25.5 23.375V23.375Z" fill="black"/>
<path d="M13.4789 34.7289C11.9003 36.3076 10.6481 38.1817 9.79385 40.2443C8.93957 42.3069 8.49992 44.5175 8.5 46.75H12.75C12.75 43.3685 14.0933 40.1255 16.4844 37.7344C18.8755 35.3433 22.1185 34 25.5 34C28.8815 34 32.1245 35.3433 34.5156 37.7344C36.9067 40.1255 38.25 43.3685 38.25 46.75H42.5C42.5001 43.3876 41.5032 40.1008 39.6352 37.305C37.7672 34.5093 35.1121 32.3302 32.0057 31.0435C28.8993 29.7567 25.4811 29.4201 22.1833 30.0761C18.8855 30.7321 15.8564 32.3513 13.4789 34.7289V34.7289Z" fill="black"/>
</svg>
