<svg class="main-svg" xmlns="http://www.w3.org/2000/svg" xmlns:xlink="http://www.w3.org/1999/xlink" width="700" height="500" style="" viewBox="0 0 700 500"><rect x="0" y="0" width="700" height="500" style="fill: rgb(252, 252, 252); fill-opacity: 1;"/><defs id="defs-8fbeb6"><g class="clips"><clipPath id="clip8fbeb6xyplot" class="plotclip"><rect width="674" height="458"/></clipPath><clipPath class="axesclip" id="clip8fbeb6x"><rect x="21" y="0" width="674" height="500"/></clipPath><clipPath class="axesclip" id="clip8fbeb6y"><rect x="0" y="5" width="700" height="458"/></clipPath><clipPath class="axesclip" id="clip8fbeb6xy"><rect x="21" y="5" width="674" height="458"/></clipPath></g><g class="gradients"/><g class="patterns"/></defs><g class="bglayer"><rect class="bg" x="21" y="5" width="674" height="458" style="fill: rgb(229, 236, 246); fill-opacity: 1; stroke-width: 0;"/></g><g class="layer-below"><g class="imagelayer"/><g class="shapelayer"/></g><g class="cartesianlayer"><g class="subplot xy"><g class="layer-subplot"><g class="shapelayer"/><g class="imagelayer"/></g><g class="minor-gridlayer"><g class="x"/><g class="y"/></g><g class="gridlayer"><g class="x"><path class="xgrid crisp" transform="translate(74.61,0)" d="M0,5v458" style="stroke: rgb(255, 255, 255); stroke-opacity: 1; stroke-width: 1px;"/><path class="xgrid crisp" transform="translate(181.84,0)" d="M0,5v458" style="stroke: rgb(255, 255, 255); stroke-opacity: 1; stroke-width: 1px;"/><path class="xgrid crisp" transform="translate(289.07,0)" d="M0,5v458" style="stroke: rgb(255, 255, 255); stroke-opacity: 1; stroke-width: 1px;"/><path class="xgrid crisp" transform="translate(396.3,0)" d="M0,5v458" style="stroke: rgb(255, 255, 255); stroke-opacity: 1; stroke-width: 1px;"/><path class="xgrid crisp" transform="translate(503.52,0)" d="M0,5v458" style="stroke: rgb(255, 255, 255); stroke-opacity: 1; stroke-width: 1px;"/><path class="xgrid crisp" transform="translate(610.75,0)" d="M0,5v458" style="stroke: rgb(255, 255, 255); stroke-opacity: 1; stroke-width: 1px;"/></g><g class="y"><path class="ygrid crisp" transform="translate(0,402.63)" d="M21,0h674" style="stroke: rgb(255, 255, 255); stroke-opacity: 1; stroke-width: 1px;"/><path class="ygrid crisp" transform="translate(0,327.68)" d="M21,0h674" style="stroke: rgb(255, 255, 255); stroke-opacity: 1; stroke-width: 1px;"/><path class="ygrid crisp" transform="translate(0,252.74)" d="M21,0h674" style="stroke: rgb(255, 255, 255); stroke-opacity: 1; stroke-width: 1px;"/><path class="ygrid crisp" transform="translate(0,177.79)" d="M21,0h674" style="stroke: rgb(255, 255, 255); stroke-opacity: 1; stroke-width: 1px;"/><path class="ygrid crisp" transform="translate(0,102.85)" d="M21,0h674" style="stroke: rgb(255, 255, 255); stroke-opacity: 1; stroke-width: 1px;"/><path class="ygrid crisp" transform="translate(0,27.9)" d="M21,0h674" style="stroke: rgb(255, 255, 255); stroke-opacity: 1; stroke-width: 1px;"/></g></g><g class="zerolinelayer"/><path class="xlines-below"/><path class="ylines-below"/><g class="overlines-below"/><g class="xaxislayer-below"/><g class="yaxislayer-below"/><g class="overaxes-below"/><g class="plot" transform="translate(21,5)" clip-path="url(#clip8fbeb6xyplot)"><g class="boxlayer mlayer"><g class="trace boxes" style="opacity: 1;"><path class="box" d="M3.91,396.63H11.41M3.91,397.63H11.41V360.15H3.91ZM7.66,397.63V397.63M7.66,360.15V352.66" style="vector-effect: non-scaling-stroke; stroke-width: 2px; stroke: rgb(235, 31, 5); stroke-opacity: 1; fill: rgb(235, 31, 5); fill-opacity: 1; opacity: 1;"/><path class="box" d="M19.22,361.15H26.73M19.22,397.63H26.73V360.15H19.22ZM22.98,397.63V397.63M22.98,360.15V360.15" style="vector-effect: non-scaling-stroke; stroke-width: 2px; stroke: rgb(36, 181, 36); stroke-opacity: 1; fill: rgb(36, 181, 36); fill-opacity: 1; opacity: 1;"/><path class="box" d="M65.18,366.65H72.68M65.18,367.65H72.68V360.15H65.18ZM68.93,367.65V390.13M68.93,360.15V352.66" style="vector-effect: non-scaling-stroke; stroke-width: 2px; stroke: rgb(235, 31, 5); stroke-opacity: 1; fill: rgb(235, 31, 5); fill-opacity: 1; opacity: 1;"/><path class="box" d="M80.5,381.64H88M80.5,382.64H88V367.65H80.5ZM84.25,382.64V382.64M84.25,367.65V352.66" style="vector-effect: non-scaling-stroke; stroke-width: 2px; stroke: rgb(235, 31, 5); stroke-opacity: 1; fill: rgb(235, 31, 5); fill-opacity: 1; opacity: 1;"/><path class="box" d="M95.82,361.15H103.32M95.82,367.65H103.32V360.15H95.82ZM99.57,367.65V397.63M99.57,360.15V360.15" style="vector-effect: non-scaling-stroke; stroke-width: 2px; stroke: rgb(36, 181, 36); stroke-opacity: 1; fill: rgb(36, 181, 36); fill-opacity: 1; opacity: 1;"/><path class="box" d="M111.13,396.63H118.64M111.13,397.63H118.64V352.66H111.13ZM114.89,397.63V397.63M114.89,352.66V322.68" style="vector-effect: non-scaling-stroke; stroke-width: 2px; stroke: rgb(235, 31, 5); stroke-opacity: 1; fill: rgb(235, 31, 5); fill-opacity: 1; opacity: 1;"/><path class="box" d="M126.45,404.12H133.96M126.45,405.12H133.96V390.13H126.45ZM130.2,405.12V405.12M130.2,390.13V390.13" style="vector-effect: non-scaling-stroke; stroke-width: 2px; stroke: rgb(235, 31, 5); stroke-opacity: 1; fill: rgb(235, 31, 5); fill-opacity: 1; opacity: 1;"/><path class="box" d="M172.41,419.11H179.91M172.41,420.11H179.91V405.12H172.41ZM176.16,420.11V435.1M176.16,405.12V405.12" style="vector-effect: non-scaling-stroke; stroke-width: 2px; stroke: rgb(235, 31, 5); stroke-opacity: 1; fill: rgb(235, 31, 5); fill-opacity: 1; opacity: 1;"/><path class="box" d="M187.72,398.63H195.23M187.72,420.11H195.23V397.63H187.72ZM191.48,420.11V420.11M191.48,397.63V397.63" style="vector-effect: non-scaling-stroke; stroke-width: 2px; stroke: rgb(36, 181, 36); stroke-opacity: 1; fill: rgb(36, 181, 36); fill-opacity: 1; opacity: 1;"/><path class="box" d="M203.04,397.63H210.55M203.04,397.63H210.55V397.63H203.04ZM206.8,397.63V397.63M206.8,397.63V397.63" style="vector-effect: non-scaling-stroke; stroke-width: 2px; stroke: rgb(36, 181, 36); stroke-opacity: 1; fill: rgb(36, 181, 36); fill-opacity: 1; opacity: 1;"/><path class="box" d="M218.36,411.62H225.87M218.36,412.62H225.87V397.63H218.36ZM222.11,412.62V412.62M222.11,397.63V397.63" style="vector-effect: non-scaling-stroke; stroke-width: 2px; stroke: rgb(235, 31, 5); stroke-opacity: 1; fill: rgb(235, 31, 5); fill-opacity: 1; opacity: 1;"/><path class="box" d="M233.68,383.64H241.18M233.68,412.62H241.18V382.64H233.68ZM237.43,412.62V420.11M237.43,382.64V382.64" style="vector-effect: non-scaling-stroke; stroke-width: 2px; stroke: rgb(36, 181, 36); stroke-opacity: 1; fill: rgb(36, 181, 36); fill-opacity: 1; opacity: 1;"/><path class="box" d="M279.63,382.64H287.14M279.63,382.64H287.14V382.64H279.63ZM283.39,382.64V435.1M283.39,382.64V382.64" style="vector-effect: non-scaling-stroke; stroke-width: 2px; stroke: rgb(36, 181, 36); stroke-opacity: 1; fill: rgb(36, 181, 36); fill-opacity: 1; opacity: 1;"/><path class="box" d="M310.27,368.65H317.78M310.27,382.64H317.78V367.65H310.27ZM314.02,382.64V412.62M314.02,367.65V360.15" style="vector-effect: non-scaling-stroke; stroke-width: 2px; stroke: rgb(36, 181, 36); stroke-opacity: 1; fill: rgb(36, 181, 36); fill-opacity: 1; opacity: 1;"/><path class="box" d="M325.59,331.18H333.09M325.59,375.14H333.09V330.18H325.59ZM329.34,375.14V375.14M329.34,330.18V322.68" style="vector-effect: non-scaling-stroke; stroke-width: 2px; stroke: rgb(36, 181, 36); stroke-opacity: 1; fill: rgb(36, 181, 36); fill-opacity: 1; opacity: 1;"/><path class="box" d="M340.91,218.76H348.41M340.91,300.2H348.41V217.76H340.91ZM344.66,300.2V300.2M344.66,217.76V217.76" style="vector-effect: non-scaling-stroke; stroke-width: 2px; stroke: rgb(36, 181, 36); stroke-opacity: 1; fill: rgb(36, 181, 36); fill-opacity: 1; opacity: 1;"/><path class="box" d="M386.86,203.77H394.37M386.86,210.26H394.37V202.77H386.86ZM390.61,210.26V240.24M390.61,202.77V187.78" style="vector-effect: non-scaling-stroke; stroke-width: 2px; stroke: rgb(36, 181, 36); stroke-opacity: 1; fill: rgb(36, 181, 36); fill-opacity: 1; opacity: 1;"/><path class="box" d="M402.18,181.29H409.68M402.18,195.27H409.68V180.29H402.18ZM405.93,195.27V217.76M405.93,180.29V150.31" style="vector-effect: non-scaling-stroke; stroke-width: 2px; stroke: rgb(36, 181, 36); stroke-opacity: 1; fill: rgb(36, 181, 36); fill-opacity: 1; opacity: 1;"/><path class="box" d="M417.5,164.3H425M417.5,165.3H425V157.8H417.5ZM421.25,165.3V180.29M421.25,157.8V157.8" style="vector-effect: non-scaling-stroke; stroke-width: 2px; stroke: rgb(235, 31, 5); stroke-opacity: 1; fill: rgb(235, 31, 5); fill-opacity: 1; opacity: 1;"/><path class="box" d="M432.82,186.78H440.32M432.82,187.78H440.32V157.8H432.82ZM436.57,187.78V225.25M436.57,157.8V157.8" style="vector-effect: non-scaling-stroke; stroke-width: 2px; stroke: rgb(235, 31, 5); stroke-opacity: 1; fill: rgb(235, 31, 5); fill-opacity: 1; opacity: 1;"/><path class="box" d="M494.09,216.76H501.59M494.09,217.76H501.59V180.29H494.09ZM497.84,217.76V217.76M497.84,180.29V165.3" style="vector-effect: non-scaling-stroke; stroke-width: 2px; stroke: rgb(235, 31, 5); stroke-opacity: 1; fill: rgb(235, 31, 5); fill-opacity: 1; opacity: 1;"/><path class="box" d="M509.41,195.27H516.91M509.41,195.27H516.91V195.27H509.41ZM513.16,195.27V217.76M513.16,195.27V195.27" style="vector-effect: non-scaling-stroke; stroke-width: 2px; stroke: rgb(36, 181, 36); stroke-opacity: 1; fill: rgb(36, 181, 36); fill-opacity: 1; opacity: 1;"/><path class="box" d="M524.72,195.27H532.23M524.72,195.27H532.23V195.27H524.72ZM528.48,195.27V255.23M528.48,195.27V195.27" style="vector-effect: non-scaling-stroke; stroke-width: 2px; stroke: rgb(36, 181, 36); stroke-opacity: 1; fill: rgb(36, 181, 36); fill-opacity: 1; opacity: 1;"/><path class="box" d="M540.04,188.78H547.55M540.04,247.74H547.55V187.78H540.04ZM543.8,247.74V247.74M543.8,187.78V187.78" style="vector-effect: non-scaling-stroke; stroke-width: 2px; stroke: rgb(36, 181, 36); stroke-opacity: 1; fill: rgb(36, 181, 36); fill-opacity: 1; opacity: 1;"/><path class="box" d="M555.36,188.78H562.87M555.36,202.77H562.87V187.78H555.36ZM559.11,202.77V202.77M559.11,187.78V187.78" style="vector-effect: non-scaling-stroke; stroke-width: 2px; stroke: rgb(36, 181, 36); stroke-opacity: 1; fill: rgb(36, 181, 36); fill-opacity: 1; opacity: 1;"/><path class="box" d="M601.32,143.81H608.82M601.32,210.26H608.82V142.81H601.32ZM605.07,210.26V210.26M605.07,142.81V127.82" style="vector-effect: non-scaling-stroke; stroke-width: 2px; stroke: rgb(36, 181, 36); stroke-opacity: 1; fill: rgb(36, 181, 36); fill-opacity: 1; opacity: 1;"/><path class="box" d="M616.63,164.3H624.14M616.63,165.3H624.14V157.8H616.63ZM620.39,165.3V202.77M620.39,157.8V157.8" style="vector-effect: non-scaling-stroke; stroke-width: 2px; stroke: rgb(235, 31, 5); stroke-opacity: 1; fill: rgb(235, 31, 5); fill-opacity: 1; opacity: 1;"/><path class="box" d="M631.95,186.78H639.46M631.95,187.78H639.46V157.8H631.95ZM635.7,187.78V187.78M635.7,157.8V150.31" style="vector-effect: non-scaling-stroke; stroke-width: 2px; stroke: rgb(235, 31, 5); stroke-opacity: 1; fill: rgb(235, 31, 5); fill-opacity: 1; opacity: 1;"/><path class="box" d="M647.27,201.77H654.78M647.27,202.77H654.78V172.79H647.27ZM651.02,202.77V202.77M651.02,172.79V172.79" style="vector-effect: non-scaling-stroke; stroke-width: 2px; stroke: rgb(235, 31, 5); stroke-opacity: 1; fill: rgb(235, 31, 5); fill-opacity: 1; opacity: 1;"/><path class="box" d="M662.59,61.37H670.09M662.59,172.79H670.09V60.37H662.59ZM666.34,172.79V172.79M666.34,60.37V22.9" style="vector-effect: non-scaling-stroke; stroke-width: 2px; stroke: rgb(36, 181, 36); stroke-opacity: 1; fill: rgb(36, 181, 36); fill-opacity: 1; opacity: 1;"/></g></g></g><g class="overplot"/><path class="xlines-above crisp" d="M0,0" style="fill: none;"/><path class="ylines-above crisp" d="M0,0" style="fill: none;"/><g class="overlines-above"/><g class="xaxislayer-above"><g class="xtick"><text text-anchor="middle" x="0" y="476" transform="translate(74.61,0)" style="font-family: 'Open Sans', verdana, arial, sans-serif; font-size: 12px; fill: rgb(42, 63, 95); fill-opacity: 1; white-space: pre; opacity: 1;"><tspan class="line" dy="0em" x="0" y="476">Oct 16</tspan><tspan class="line" dy="1.3em" x="0" y="476">2022</tspan></text></g><g class="xtick"><text text-anchor="middle" x="0" y="476" style="font-family: 'Open Sans', verdana, arial, sans-serif; font-size: 12px; fill: rgb(42, 63, 95); fill-opacity: 1; white-space: pre; opacity: 1;" transform="translate(181.84,0)">Oct 23</text></g><g class="xtick"><text text-anchor="middle" x="0" y="476" style="font-family: 'Open Sans', verdana, arial, sans-serif; font-size: 12px; fill: rgb(42, 63, 95); fill-opacity: 1; white-space: pre; opacity: 1;" transform="translate(289.07,0)">Oct 30</text></g><g class="xtick"><text text-anchor="middle" x="0" y="476" style="font-family: 'Open Sans', verdana, arial, sans-serif; font-size: 12px; fill: rgb(42, 63, 95); fill-opacity: 1; white-space: pre; opacity: 1;" transform="translate(396.3,0)">Nov 6</text></g><g class="xtick"><text text-anchor="middle" x="0" y="476" style="font-family: 'Open Sans', verdana, arial, sans-serif; font-size: 12px; fill: rgb(42, 63, 95); fill-opacity: 1; white-space: pre; opacity: 1;" transform="translate(503.52,0)">Nov 13</text></g><g class="xtick"><text text-anchor="middle" x="0" y="476" style="font-family: 'Open Sans', verdana, arial, sans-serif; font-size: 12px; fill: rgb(42, 63, 95); fill-opacity: 1; white-space: pre; opacity: 1;" transform="translate(610.75,0)">Nov 20</text></g></g><g class="yaxislayer-above"><g class="ytick"><text text-anchor="end" x="20" y="4.199999999999999" transform="translate(0,402.63)" style="font-family: 'Open Sans', verdana, arial, sans-serif; font-size: 12px; fill: rgb(42, 63, 95); fill-opacity: 1; white-space: pre; opacity: 1;">34</text></g><g class="ytick"><text text-anchor="end" x="20" y="4.199999999999999" style="font-family: 'Open Sans', verdana, arial, sans-serif; font-size: 12px; fill: rgb(42, 63, 95); fill-opacity: 1; white-space: pre; opacity: 1;" transform="translate(0,327.68)">35</text></g><g class="ytick"><text text-anchor="end" x="20" y="4.199999999999999" style="font-family: 'Open Sans', verdana, arial, sans-serif; font-size: 12px; fill: rgb(42, 63, 95); fill-opacity: 1; white-space: pre; opacity: 1;" transform="translate(0,252.74)">36</text></g><g class="ytick"><text text-anchor="end" x="20" y="4.199999999999999" style="font-family: 'Open Sans', verdana, arial, sans-serif; font-size: 12px; fill: rgb(42, 63, 95); fill-opacity: 1; white-space: pre; opacity: 1;" transform="translate(0,177.79)">37</text></g><g class="ytick"><text text-anchor="end" x="20" y="4.199999999999999" style="font-family: 'Open Sans', verdana, arial, sans-serif; font-size: 12px; fill: rgb(42, 63, 95); fill-opacity: 1; white-space: pre; opacity: 1;" transform="translate(0,102.85)">38</text></g><g class="ytick"><text text-anchor="end" x="20" y="4.199999999999999" style="font-family: 'Open Sans', verdana, arial, sans-serif; font-size: 12px; fill: rgb(42, 63, 95); fill-opacity: 1; white-space: pre; opacity: 1;" transform="translate(0,27.9)">39</text></g></g><g class="overaxes-above"/></g></g><g class="polarlayer"/><g class="smithlayer"/><g class="ternarylayer"/><g class="geolayer"/><g class="funnelarealayer"/><g class="pielayer"/><g class="iciclelayer"/><g class="treemaplayer"/><g class="sunburstlayer"/><g class="glimages"/><defs id="topdefs-8fbeb6"><g class="clips"/></defs><g class="layer-above"><g class="imagelayer"/><g class="shapelayer"/></g><g class="infolayer"><g class="g-gtitle"/><g class="g-xtitle"/><g class="g-ytitle"/></g></svg>